<mxfile host="app.diagrams.net" agent="Mozilla/5.0 (Windows NT 10.0; Win64; x64) AppleWebKit/537.36 (KHTML, like Gecko) Chrome/134.0.0.0 Safari/537.36" version="26.2.3">
  <diagram name="Trang-1" id="Ztn3TtZZHJXhtWK4gYRY">
    <mxGraphModel dx="816" dy="1276" grid="1" gridSize="10" guides="1" tooltips="1" connect="1" arrows="1" fold="1" page="1" pageScale="1" pageWidth="1169" pageHeight="827" math="0" shadow="0">
      <root>
        <mxCell id="0" />
        <mxCell id="1" parent="0" />
        <mxCell id="y0iXgwqpWS010kWWXGdw-2" value="" style="verticalAlign=top;verticalLabelPosition=bottom;labelPosition=center;align=center;html=1;outlineConnect=0;fillColor=#ffe6cc;strokeColor=#d79b00;gradientDirection=north;strokeWidth=2;shape=mxgraph.networks.wireless_modem;" parent="1" vertex="1">
          <mxGeometry x="99.71" y="690" width="70.59" height="60" as="geometry" />
        </mxCell>
        <mxCell id="y0iXgwqpWS010kWWXGdw-3" value="" style="fontColor=#0066CC;verticalAlign=top;verticalLabelPosition=bottom;labelPosition=center;align=center;html=1;outlineConnect=0;fillColor=#CCCCCC;strokeColor=#6881B3;gradientColor=none;gradientDirection=north;strokeWidth=2;shape=mxgraph.networks.router;" parent="1" vertex="1">
          <mxGeometry x="120" y="630" width="100" height="30" as="geometry" />
        </mxCell>
        <mxCell id="y0iXgwqpWS010kWWXGdw-4" value="" style="fontColor=#0066CC;verticalAlign=top;verticalLabelPosition=bottom;labelPosition=center;align=center;html=1;outlineConnect=0;fillColor=#CCCCCC;strokeColor=#6881B3;gradientColor=none;gradientDirection=north;strokeWidth=2;shape=mxgraph.networks.firewall;" parent="1" vertex="1">
          <mxGeometry x="120" y="450" width="100" height="100" as="geometry" />
        </mxCell>
        <mxCell id="y0iXgwqpWS010kWWXGdw-6" value="" style="fontColor=#0066CC;verticalAlign=top;verticalLabelPosition=bottom;labelPosition=center;align=center;html=1;outlineConnect=0;fillColor=#CCCCCC;strokeColor=#6881B3;gradientColor=none;gradientDirection=north;strokeWidth=2;shape=mxgraph.networks.desktop_pc;" parent="1" vertex="1">
          <mxGeometry x="280" y="460" width="30" height="60" as="geometry" />
        </mxCell>
        <mxCell id="y0iXgwqpWS010kWWXGdw-7" value="" style="fontColor=#0066CC;verticalAlign=top;verticalLabelPosition=bottom;labelPosition=center;align=center;html=1;outlineConnect=0;fillColor=#CCCCCC;strokeColor=#6881B3;gradientColor=none;gradientDirection=north;strokeWidth=2;shape=mxgraph.networks.switch;" parent="1" vertex="1">
          <mxGeometry x="260" y="370" width="100" height="30" as="geometry" />
        </mxCell>
        <mxCell id="y0iXgwqpWS010kWWXGdw-8" value="" style="fontColor=#0066CC;verticalAlign=top;verticalLabelPosition=bottom;labelPosition=center;align=center;html=1;outlineConnect=0;fillColor=#CCCCCC;strokeColor=#6881B3;gradientColor=none;gradientDirection=north;strokeWidth=2;shape=mxgraph.networks.desktop_pc;" parent="1" vertex="1">
          <mxGeometry x="170" y="355" width="30" height="60" as="geometry" />
        </mxCell>
        <mxCell id="y0iXgwqpWS010kWWXGdw-58" value="" style="group" parent="1" vertex="1" connectable="0">
          <mxGeometry x="60.00000000000006" y="30" width="450.92" height="90" as="geometry" />
        </mxCell>
        <mxCell id="y0iXgwqpWS010kWWXGdw-35" value="" style="rounded=1;whiteSpace=wrap;html=1;fillStyle=auto;labelBackgroundColor=#F8CECC;fillColor=#ffe6cc;strokeColor=#d79b00;" parent="y0iXgwqpWS010kWWXGdw-58" vertex="1">
          <mxGeometry x="232.34822519709735" width="218.57177480290267" height="83.57142857142856" as="geometry" />
        </mxCell>
        <mxCell id="y0iXgwqpWS010kWWXGdw-36" value="" style="fontColor=#0066CC;verticalAlign=top;verticalLabelPosition=bottom;labelPosition=center;align=center;html=1;outlineConnect=0;fillColor=#CCCCCC;strokeColor=#6881B3;gradientColor=none;gradientDirection=north;strokeWidth=2;shape=mxgraph.networks.pc;" parent="y0iXgwqpWS010kWWXGdw-58" vertex="1">
          <mxGeometry x="252.55325720314204" y="28.928571428571427" width="45.91935845344512" height="32.14285714285714" as="geometry" />
        </mxCell>
        <mxCell id="y0iXgwqpWS010kWWXGdw-37" value="" style="fontColor=#0066CC;verticalAlign=top;verticalLabelPosition=bottom;labelPosition=center;align=center;html=1;outlineConnect=0;fillColor=#CCCCCC;strokeColor=#6881B3;gradientColor=none;gradientDirection=north;strokeWidth=2;shape=mxgraph.networks.phone_1;" parent="y0iXgwqpWS010kWWXGdw-58" vertex="1">
          <mxGeometry x="317.75836049213746" y="32.14285714285714" width="36.732915330111354" height="25.714285714285715" as="geometry" />
        </mxCell>
        <mxCell id="y0iXgwqpWS010kWWXGdw-38" value="" style="fontColor=#0066CC;verticalAlign=top;verticalLabelPosition=bottom;labelPosition=center;align=center;html=1;outlineConnect=0;fillColor=#CCCCCC;strokeColor=#6881B3;gradientColor=none;gradientDirection=north;strokeWidth=2;shape=mxgraph.networks.monitor;" parent="y0iXgwqpWS010kWWXGdw-58" vertex="1">
          <mxGeometry x="380.13488787191886" y="28.928571428571427" width="39.561491239325385" height="32.14285714285714" as="geometry" />
        </mxCell>
        <mxCell id="y0iXgwqpWS010kWWXGdw-28" value="" style="rounded=1;whiteSpace=wrap;html=1;fillStyle=auto;labelBackgroundColor=#F8CECC;fillColor=#ffe6cc;strokeColor=#d79b00;" parent="y0iXgwqpWS010kWWXGdw-58" vertex="1">
          <mxGeometry width="218.57177480290267" height="83.57142857142856" as="geometry" />
        </mxCell>
        <mxCell id="y0iXgwqpWS010kWWXGdw-29" value="" style="fontColor=#0066CC;verticalAlign=top;verticalLabelPosition=bottom;labelPosition=center;align=center;html=1;outlineConnect=0;fillColor=#CCCCCC;strokeColor=#6881B3;gradientColor=none;gradientDirection=north;strokeWidth=2;shape=mxgraph.networks.switch;" parent="y0iXgwqpWS010kWWXGdw-58" vertex="1">
          <mxGeometry x="193.77673552599677" y="70.71428571428571" width="64.28581611850079" height="19.285714285714285" as="geometry" />
        </mxCell>
        <mxCell id="y0iXgwqpWS010kWWXGdw-31" value="" style="fontColor=#0066CC;verticalAlign=top;verticalLabelPosition=bottom;labelPosition=center;align=center;html=1;outlineConnect=0;fillColor=#CCCCCC;strokeColor=#6881B3;gradientColor=none;gradientDirection=north;strokeWidth=2;shape=mxgraph.networks.pc;" parent="y0iXgwqpWS010kWWXGdw-58" vertex="1">
          <mxGeometry x="20.205032006044693" y="28.928571428571427" width="45.91935845344512" height="32.14285714285714" as="geometry" />
        </mxCell>
        <mxCell id="y0iXgwqpWS010kWWXGdw-32" value="" style="fontColor=#0066CC;verticalAlign=top;verticalLabelPosition=bottom;labelPosition=center;align=center;html=1;outlineConnect=0;fillColor=#CCCCCC;strokeColor=#6881B3;gradientColor=none;gradientDirection=north;strokeWidth=2;shape=mxgraph.networks.phone_1;" parent="y0iXgwqpWS010kWWXGdw-58" vertex="1">
          <mxGeometry x="85.41013529504008" y="32.14285714285714" width="36.732915330111354" height="25.714285714285715" as="geometry" />
        </mxCell>
        <mxCell id="y0iXgwqpWS010kWWXGdw-33" value="" style="fontColor=#0066CC;verticalAlign=top;verticalLabelPosition=bottom;labelPosition=center;align=center;html=1;outlineConnect=0;fillColor=#CCCCCC;strokeColor=#6881B3;gradientColor=none;gradientDirection=north;strokeWidth=2;shape=mxgraph.networks.monitor;" parent="y0iXgwqpWS010kWWXGdw-58" vertex="1">
          <mxGeometry x="147.78666267482146" y="28.928571428571427" width="39.561491239325385" height="32.14285714285714" as="geometry" />
        </mxCell>
        <mxCell id="y0iXgwqpWS010kWWXGdw-46" value="" style="endArrow=none;html=1;rounded=0;entryX=0;entryY=0.5;entryDx=0;entryDy=0;entryPerimeter=0;exitX=0.574;exitY=1.021;exitDx=0;exitDy=0;exitPerimeter=0;" parent="y0iXgwqpWS010kWWXGdw-58" source="y0iXgwqpWS010kWWXGdw-31" target="y0iXgwqpWS010kWWXGdw-29" edge="1">
          <mxGeometry width="50" height="50" relative="1" as="geometry">
            <mxPoint x="13.776450394194686" y="-90" as="sourcePoint" />
            <mxPoint x="45.91935845344508" y="-122.14285714285714" as="targetPoint" />
            <Array as="points">
              <mxPoint x="45.91935845344508" y="80.35714285714286" />
            </Array>
          </mxGeometry>
        </mxCell>
        <mxCell id="y0iXgwqpWS010kWWXGdw-47" value="" style="endArrow=none;html=1;rounded=0;entryX=1;entryY=0.5;entryDx=0;entryDy=0;entryPerimeter=0;" parent="y0iXgwqpWS010kWWXGdw-58" source="y0iXgwqpWS010kWWXGdw-36" target="y0iXgwqpWS010kWWXGdw-29" edge="1">
          <mxGeometry width="50" height="50" relative="1" as="geometry">
            <mxPoint x="168.06240907859657" y="96.42857142857142" as="sourcePoint" />
            <mxPoint x="200.20531713784698" y="64.28571428571428" as="targetPoint" />
            <Array as="points">
              <mxPoint x="275.4197219964929" y="80.35714285714286" />
            </Array>
          </mxGeometry>
        </mxCell>
        <mxCell id="y0iXgwqpWS010kWWXGdw-48" value="" style="endArrow=none;html=1;rounded=0;entryX=1;entryY=0.5;entryDx=0;entryDy=0;entryPerimeter=0;" parent="y0iXgwqpWS010kWWXGdw-58" source="y0iXgwqpWS010kWWXGdw-37" target="y0iXgwqpWS010kWWXGdw-29" edge="1">
          <mxGeometry width="50" height="50" relative="1" as="geometry">
            <mxPoint x="168.06240907859657" y="96.42857142857142" as="sourcePoint" />
            <mxPoint x="200.20531713784698" y="64.28571428571428" as="targetPoint" />
            <Array as="points">
              <mxPoint x="335.84838914788367" y="80.35714285714286" />
            </Array>
          </mxGeometry>
        </mxCell>
        <mxCell id="y0iXgwqpWS010kWWXGdw-49" value="" style="endArrow=none;html=1;rounded=0;entryX=0.5;entryY=1;entryDx=0;entryDy=0;entryPerimeter=0;exitX=1;exitY=0.5;exitDx=0;exitDy=0;exitPerimeter=0;" parent="y0iXgwqpWS010kWWXGdw-58" source="y0iXgwqpWS010kWWXGdw-29" target="y0iXgwqpWS010kWWXGdw-38" edge="1">
          <mxGeometry width="50" height="50" relative="1" as="geometry">
            <mxPoint x="366.705580884764" y="102.85714285714286" as="sourcePoint" />
            <mxPoint x="398.84848894401443" y="70.71428571428571" as="targetPoint" />
            <Array as="points">
              <mxPoint x="400.13420526638447" y="80.35714285714286" />
            </Array>
          </mxGeometry>
        </mxCell>
        <mxCell id="y0iXgwqpWS010kWWXGdw-50" value="" style="endArrow=none;html=1;rounded=0;entryX=0;entryY=0.5;entryDx=0;entryDy=0;entryPerimeter=0;exitX=0.5;exitY=1;exitDx=0;exitDy=0;exitPerimeter=0;" parent="y0iXgwqpWS010kWWXGdw-58" source="y0iXgwqpWS010kWWXGdw-32" target="y0iXgwqpWS010kWWXGdw-29" edge="1">
          <mxGeometry width="50" height="50" relative="1" as="geometry">
            <mxPoint x="168.06240907859657" y="96.42857142857142" as="sourcePoint" />
            <mxPoint x="200.20531713784698" y="64.28571428571428" as="targetPoint" />
            <Array as="points">
              <mxPoint x="103.77659296009578" y="80.35714285714286" />
            </Array>
          </mxGeometry>
        </mxCell>
        <mxCell id="y0iXgwqpWS010kWWXGdw-51" value="" style="endArrow=none;html=1;rounded=0;entryX=0;entryY=0.5;entryDx=0;entryDy=0;entryPerimeter=0;exitX=0.5;exitY=1;exitDx=0;exitDy=0;exitPerimeter=0;" parent="y0iXgwqpWS010kWWXGdw-58" source="y0iXgwqpWS010kWWXGdw-33" target="y0iXgwqpWS010kWWXGdw-29" edge="1">
          <mxGeometry width="50" height="50" relative="1" as="geometry">
            <mxPoint x="168.06240907859657" y="96.42857142857142" as="sourcePoint" />
            <mxPoint x="187.34815391414682" y="77.14285714285714" as="targetPoint" />
            <Array as="points">
              <mxPoint x="168.06240907859657" y="80.35714285714286" />
            </Array>
          </mxGeometry>
        </mxCell>
        <mxCell id="y0iXgwqpWS010kWWXGdw-107" value="" style="fontColor=#0066CC;verticalAlign=top;verticalLabelPosition=bottom;labelPosition=center;align=center;html=1;outlineConnect=0;fillColor=#CCCCCC;strokeColor=#6881B3;gradientColor=none;gradientDirection=north;strokeWidth=2;shape=mxgraph.networks.wireless_modem;" parent="y0iXgwqpWS010kWWXGdw-58" vertex="1">
          <mxGeometry x="213.69999999999993" y="19.999999999999993" width="23.53" height="20" as="geometry" />
        </mxCell>
        <mxCell id="y0iXgwqpWS010kWWXGdw-108" value="" style="endArrow=none;html=1;rounded=0;entryX=0.676;entryY=1;entryDx=0;entryDy=0;entryPerimeter=0;" parent="y0iXgwqpWS010kWWXGdw-58" target="y0iXgwqpWS010kWWXGdw-107" edge="1">
          <mxGeometry width="50" height="50" relative="1" as="geometry">
            <mxPoint x="229.99999999999994" y="70" as="sourcePoint" />
            <mxPoint x="279.99999999999994" y="20" as="targetPoint" />
          </mxGeometry>
        </mxCell>
        <mxCell id="y0iXgwqpWS010kWWXGdw-235" value="&lt;font style=&quot;font-size: 9px;&quot;&gt;Phòng Chủ tịch&lt;/font&gt;" style="text;strokeColor=none;fillColor=none;html=1;fontSize=24;fontStyle=1;verticalAlign=middle;align=center;" parent="y0iXgwqpWS010kWWXGdw-58" vertex="1">
          <mxGeometry x="-7.8600000000000705" width="130" height="20" as="geometry" />
        </mxCell>
        <mxCell id="y0iXgwqpWS010kWWXGdw-246" value="&lt;font style=&quot;font-size: 9px;&quot;&gt;Phòng Giám đốc&lt;/font&gt;" style="text;strokeColor=none;fillColor=none;html=1;fontSize=24;fontStyle=1;verticalAlign=middle;align=center;" parent="y0iXgwqpWS010kWWXGdw-58" vertex="1">
          <mxGeometry x="237.22999999999996" width="130" height="20" as="geometry" />
        </mxCell>
        <mxCell id="y0iXgwqpWS010kWWXGdw-75" value="" style="group" parent="1" vertex="1" connectable="0">
          <mxGeometry x="840" y="30" width="191.25" height="90" as="geometry" />
        </mxCell>
        <mxCell id="y0iXgwqpWS010kWWXGdw-60" value="" style="rounded=1;whiteSpace=wrap;html=1;fillStyle=auto;labelBackgroundColor=#F8CECC;fillColor=#ffe6cc;strokeColor=#d79b00;" parent="y0iXgwqpWS010kWWXGdw-75" vertex="1">
          <mxGeometry width="191.25" height="81.5625" as="geometry" />
        </mxCell>
        <mxCell id="y0iXgwqpWS010kWWXGdw-61" value="" style="fontColor=#0066CC;verticalAlign=top;verticalLabelPosition=bottom;labelPosition=center;align=center;html=1;outlineConnect=0;fillColor=#CCCCCC;strokeColor=#6881B3;gradientColor=none;gradientDirection=north;strokeWidth=2;shape=mxgraph.networks.switch;" parent="y0iXgwqpWS010kWWXGdw-75" vertex="1">
          <mxGeometry x="61.875" y="73.125" width="56.25" height="16.875" as="geometry" />
        </mxCell>
        <mxCell id="y0iXgwqpWS010kWWXGdw-66" value="" style="fontColor=#0066CC;verticalAlign=top;verticalLabelPosition=bottom;labelPosition=center;align=center;html=1;outlineConnect=0;fillColor=#CCCCCC;strokeColor=#6881B3;gradientColor=none;gradientDirection=north;strokeWidth=2;shape=mxgraph.networks.wireless_modem;" parent="y0iXgwqpWS010kWWXGdw-75" vertex="1">
          <mxGeometry x="22.927499999999995" y="45" width="26.47125" height="22.5" as="geometry" />
        </mxCell>
        <mxCell id="y0iXgwqpWS010kWWXGdw-67" value="" style="fontColor=#0066CC;verticalAlign=top;verticalLabelPosition=bottom;labelPosition=center;align=center;html=1;outlineConnect=0;fillColor=#CCCCCC;strokeColor=#6881B3;gradientColor=none;gradientDirection=north;strokeWidth=2;shape=mxgraph.networks.video_projector;" parent="y0iXgwqpWS010kWWXGdw-75" vertex="1">
          <mxGeometry x="131.93437500000002" y="50.625" width="32.14125000000001" height="11.25" as="geometry" />
        </mxCell>
        <mxCell id="y0iXgwqpWS010kWWXGdw-68" value="" style="fontColor=#0066CC;verticalAlign=top;verticalLabelPosition=bottom;labelPosition=center;align=center;html=1;outlineConnect=0;fillColor=#CCCCCC;strokeColor=#6881B3;gradientColor=none;gradientDirection=north;strokeWidth=2;shape=mxgraph.networks.laptop;" parent="y0iXgwqpWS010kWWXGdw-75" vertex="1">
          <mxGeometry x="8.746874999999974" y="14.0625" width="30.684375" height="16.875" as="geometry" />
        </mxCell>
        <mxCell id="y0iXgwqpWS010kWWXGdw-69" value="" style="fontColor=#0066CC;verticalAlign=top;verticalLabelPosition=bottom;labelPosition=center;align=center;html=1;outlineConnect=0;fillColor=#CCCCCC;strokeColor=#6881B3;gradientColor=none;gradientDirection=north;strokeWidth=2;shape=mxgraph.networks.laptop;" parent="y0iXgwqpWS010kWWXGdw-75" vertex="1">
          <mxGeometry x="55.985624999999985" y="14.0625" width="30.684375" height="16.875" as="geometry" />
        </mxCell>
        <mxCell id="y0iXgwqpWS010kWWXGdw-70" value="" style="fontColor=#0066CC;verticalAlign=top;verticalLabelPosition=bottom;labelPosition=center;align=center;html=1;outlineConnect=0;fillColor=#CCCCCC;strokeColor=#6881B3;gradientColor=none;gradientDirection=north;strokeWidth=2;shape=mxgraph.networks.laptop;" parent="y0iXgwqpWS010kWWXGdw-75" vertex="1">
          <mxGeometry x="101.25" y="14.0625" width="30.684375" height="16.875" as="geometry" />
        </mxCell>
        <mxCell id="y0iXgwqpWS010kWWXGdw-71" value="" style="fontColor=#0066CC;verticalAlign=top;verticalLabelPosition=bottom;labelPosition=center;align=center;html=1;outlineConnect=0;fillColor=#CCCCCC;strokeColor=#6881B3;gradientColor=none;gradientDirection=north;strokeWidth=2;shape=mxgraph.networks.laptop;" parent="y0iXgwqpWS010kWWXGdw-75" vertex="1">
          <mxGeometry x="148.48875" y="14.0625" width="30.684375" height="16.875" as="geometry" />
        </mxCell>
        <mxCell id="y0iXgwqpWS010kWWXGdw-72" value="" style="endArrow=none;html=1;rounded=0;exitX=0.5;exitY=0;exitDx=0;exitDy=0;exitPerimeter=0;" parent="y0iXgwqpWS010kWWXGdw-75" source="y0iXgwqpWS010kWWXGdw-61" target="y0iXgwqpWS010kWWXGdw-66" edge="1">
          <mxGeometry width="50" height="50" relative="1" as="geometry">
            <mxPoint x="5.625" y="5.625" as="sourcePoint" />
            <mxPoint x="33.75" y="-22.5" as="targetPoint" />
            <Array as="points">
              <mxPoint x="90" y="56.25" />
            </Array>
          </mxGeometry>
        </mxCell>
        <mxCell id="y0iXgwqpWS010kWWXGdw-73" value="" style="endArrow=none;html=1;rounded=0;" parent="y0iXgwqpWS010kWWXGdw-75" edge="1">
          <mxGeometry width="50" height="50" relative="1" as="geometry">
            <mxPoint x="90" y="73.125" as="sourcePoint" />
            <mxPoint x="129.375" y="56.25" as="targetPoint" />
            <Array as="points">
              <mxPoint x="90" y="56.25" />
            </Array>
          </mxGeometry>
        </mxCell>
        <mxCell id="y0iXgwqpWS010kWWXGdw-97" value="" style="group" parent="1" vertex="1" connectable="0">
          <mxGeometry x="690" y="170" width="321.64" height="103.27000000000001" as="geometry" />
        </mxCell>
        <mxCell id="y0iXgwqpWS010kWWXGdw-76" value="" style="rounded=1;whiteSpace=wrap;html=1;fillStyle=auto;labelBackgroundColor=#F8CECC;fillColor=#ffe6cc;strokeColor=#d79b00;" parent="y0iXgwqpWS010kWWXGdw-97" vertex="1">
          <mxGeometry x="30.76937794465836" width="290.87062205534164" height="100" as="geometry" />
        </mxCell>
        <mxCell id="y0iXgwqpWS010kWWXGdw-77" value="" style="fontColor=#0066CC;verticalAlign=top;verticalLabelPosition=bottom;labelPosition=center;align=center;html=1;outlineConnect=0;fillColor=#CCCCCC;strokeColor=#6881B3;gradientColor=none;gradientDirection=north;strokeWidth=2;shape=mxgraph.networks.monitor;" parent="y0iXgwqpWS010kWWXGdw-97" vertex="1">
          <mxGeometry x="114.30054671991967" y="15.384615384615385" width="37.86941190538827" height="30.76923076923077" as="geometry" />
        </mxCell>
        <mxCell id="y0iXgwqpWS010kWWXGdw-78" value="" style="fontColor=#0066CC;verticalAlign=top;verticalLabelPosition=bottom;labelPosition=center;align=center;html=1;outlineConnect=0;fillColor=#CCCCCC;strokeColor=#6881B3;gradientColor=none;gradientDirection=north;strokeWidth=2;shape=mxgraph.networks.pc;" parent="y0iXgwqpWS010kWWXGdw-97" vertex="1">
          <mxGeometry x="114.30054671991967" y="61.53846153846154" width="32.96938846770143" height="23.076923076923077" as="geometry" />
        </mxCell>
        <mxCell id="y0iXgwqpWS010kWWXGdw-79" value="" style="fontColor=#0066CC;verticalAlign=top;verticalLabelPosition=bottom;labelPosition=center;align=center;html=1;outlineConnect=0;fillColor=#CCCCCC;strokeColor=#6881B3;gradientColor=none;gradientDirection=north;strokeWidth=2;shape=mxgraph.networks.monitor;" parent="y0iXgwqpWS010kWWXGdw-97" vertex="1">
          <mxGeometry x="166.8315672159376" y="15.384615384615385" width="37.86941190538827" height="30.76923076923077" as="geometry" />
        </mxCell>
        <mxCell id="y0iXgwqpWS010kWWXGdw-80" value="" style="fontColor=#0066CC;verticalAlign=top;verticalLabelPosition=bottom;labelPosition=center;align=center;html=1;outlineConnect=0;fillColor=#CCCCCC;strokeColor=#6881B3;gradientColor=none;gradientDirection=north;strokeWidth=2;shape=mxgraph.networks.pc;" parent="y0iXgwqpWS010kWWXGdw-97" vertex="1">
          <mxGeometry x="166.8315672159376" y="61.53846153846154" width="32.96938846770143" height="23.076923076923077" as="geometry" />
        </mxCell>
        <mxCell id="y0iXgwqpWS010kWWXGdw-81" value="" style="fontColor=#0066CC;verticalAlign=top;verticalLabelPosition=bottom;labelPosition=center;align=center;html=1;outlineConnect=0;fillColor=#CCCCCC;strokeColor=#6881B3;gradientColor=none;gradientDirection=north;strokeWidth=2;shape=mxgraph.networks.monitor;" parent="y0iXgwqpWS010kWWXGdw-97" vertex="1">
          <mxGeometry x="219.5318192906512" y="15.384615384615385" width="37.86941190538827" height="30.76923076923077" as="geometry" />
        </mxCell>
        <mxCell id="y0iXgwqpWS010kWWXGdw-82" value="" style="fontColor=#0066CC;verticalAlign=top;verticalLabelPosition=bottom;labelPosition=center;align=center;html=1;outlineConnect=0;fillColor=#CCCCCC;strokeColor=#6881B3;gradientColor=none;gradientDirection=north;strokeWidth=2;shape=mxgraph.networks.pc;" parent="y0iXgwqpWS010kWWXGdw-97" vertex="1">
          <mxGeometry x="219.5318192906512" y="61.53846153846154" width="32.96938846770143" height="23.076923076923077" as="geometry" />
        </mxCell>
        <mxCell id="y0iXgwqpWS010kWWXGdw-83" value="" style="fontColor=#0066CC;verticalAlign=top;verticalLabelPosition=bottom;labelPosition=center;align=center;html=1;outlineConnect=0;fillColor=#CCCCCC;strokeColor=#6881B3;gradientColor=none;gradientDirection=north;strokeWidth=2;shape=mxgraph.networks.printer;" parent="y0iXgwqpWS010kWWXGdw-97" vertex="1">
          <mxGeometry x="276.9244015019252" y="15.384615384615385" width="30.76937794465836" height="30.76923076923077" as="geometry" />
        </mxCell>
        <mxCell id="y0iXgwqpWS010kWWXGdw-84" value="" style="fontColor=#0066CC;verticalAlign=top;verticalLabelPosition=bottom;labelPosition=center;align=center;html=1;outlineConnect=0;fillColor=#CCCCCC;strokeColor=#6881B3;gradientColor=none;gradientDirection=north;strokeWidth=2;shape=mxgraph.networks.phone_1;" parent="y0iXgwqpWS010kWWXGdw-97" vertex="1">
          <mxGeometry x="276.9244015019252" y="61.53846153846154" width="32.96938846770143" height="23.076923076923077" as="geometry" />
        </mxCell>
        <mxCell id="y0iXgwqpWS010kWWXGdw-85" value="" style="fontColor=#0066CC;verticalAlign=top;verticalLabelPosition=bottom;labelPosition=center;align=center;html=1;outlineConnect=0;fillColor=#CCCCCC;strokeColor=#6881B3;gradientColor=none;gradientDirection=north;strokeWidth=2;shape=mxgraph.networks.wireless_modem;" parent="y0iXgwqpWS010kWWXGdw-97" vertex="1">
          <mxGeometry x="51.28486068925929" y="15.384615384615385" width="25.638584172386576" height="23.076923076923077" as="geometry" />
        </mxCell>
        <mxCell id="y0iXgwqpWS010kWWXGdw-86" value="" style="fontColor=#0066CC;verticalAlign=top;verticalLabelPosition=bottom;labelPosition=center;align=center;html=1;outlineConnect=0;fillColor=#CCCCCC;strokeColor=#6881B3;gradientColor=none;gradientDirection=north;strokeWidth=2;shape=mxgraph.networks.switch;" parent="y0iXgwqpWS010kWWXGdw-97" vertex="1">
          <mxGeometry y="65.38461538461539" width="51.28486068925932" height="15.384615384615385" as="geometry" />
        </mxCell>
        <mxCell id="y0iXgwqpWS010kWWXGdw-87" value="" style="endArrow=none;html=1;rounded=0;exitX=1;exitY=0.5;exitDx=0;exitDy=0;exitPerimeter=0;" parent="y0iXgwqpWS010kWWXGdw-97" source="y0iXgwqpWS010kWWXGdw-86" target="y0iXgwqpWS010kWWXGdw-85" edge="1">
          <mxGeometry width="50" height="50" relative="1" as="geometry">
            <mxPoint x="100.00047832013966" y="46.15384615384615" as="sourcePoint" />
            <mxPoint x="138.4622007509626" y="7.6923076923076925" as="targetPoint" />
            <Array as="points">
              <mxPoint x="64" y="73" />
            </Array>
          </mxGeometry>
        </mxCell>
        <mxCell id="y0iXgwqpWS010kWWXGdw-88" value="" style="endArrow=none;html=1;rounded=0;entryX=0.5;entryY=1;entryDx=0;entryDy=0;entryPerimeter=0;exitX=1;exitY=0.5;exitDx=0;exitDy=0;exitPerimeter=0;" parent="y0iXgwqpWS010kWWXGdw-97" source="y0iXgwqpWS010kWWXGdw-86" target="y0iXgwqpWS010kWWXGdw-83" edge="1">
          <mxGeometry width="50" height="50" relative="1" as="geometry">
            <mxPoint x="100.00047832013966" y="46.15384615384615" as="sourcePoint" />
            <mxPoint x="138.4622007509626" y="7.6923076923076925" as="targetPoint" />
            <Array as="points">
              <mxPoint x="100.00047832013966" y="73.07692307692308" />
              <mxPoint x="100.00047832013966" y="53.84615384615385" />
              <mxPoint x="292.3090904742544" y="53.84615384615385" />
            </Array>
          </mxGeometry>
        </mxCell>
        <mxCell id="y0iXgwqpWS010kWWXGdw-89" value="" style="endArrow=none;html=1;rounded=0;entryX=0.5;entryY=1;entryDx=0;entryDy=0;entryPerimeter=0;" parent="y0iXgwqpWS010kWWXGdw-97" target="y0iXgwqpWS010kWWXGdw-77" edge="1">
          <mxGeometry width="50" height="50" relative="1" as="geometry">
            <mxPoint x="133.0775596106474" y="53.84615384615385" as="sourcePoint" />
            <mxPoint x="200.00095664027933" y="7.6923076923076925" as="targetPoint" />
          </mxGeometry>
        </mxCell>
        <mxCell id="y0iXgwqpWS010kWWXGdw-91" value="" style="endArrow=none;html=1;rounded=0;" parent="y0iXgwqpWS010kWWXGdw-97" edge="1">
          <mxGeometry width="50" height="50" relative="1" as="geometry">
            <mxPoint x="184.61626766795015" y="53.84615384615385" as="sourcePoint" />
            <mxPoint x="184.61626766795015" y="46.15384615384615" as="targetPoint" />
          </mxGeometry>
        </mxCell>
        <mxCell id="y0iXgwqpWS010kWWXGdw-92" value="" style="endArrow=none;html=1;rounded=0;entryX=0.5;entryY=1;entryDx=0;entryDy=0;entryPerimeter=0;" parent="y0iXgwqpWS010kWWXGdw-97" target="y0iXgwqpWS010kWWXGdw-81" edge="1">
          <mxGeometry width="50" height="50" relative="1" as="geometry">
            <mxPoint x="238.4626790711023" y="53.84615384615385" as="sourcePoint" />
            <mxPoint x="207.6933011264439" y="23.076923076923077" as="targetPoint" />
          </mxGeometry>
        </mxCell>
        <mxCell id="y0iXgwqpWS010kWWXGdw-93" value="" style="endArrow=none;html=1;rounded=0;" parent="y0iXgwqpWS010kWWXGdw-97" target="y0iXgwqpWS010kWWXGdw-78" edge="1">
          <mxGeometry width="50" height="50" relative="1" as="geometry">
            <mxPoint x="130.76985626479802" y="53.84615384615385" as="sourcePoint" />
            <mxPoint x="207.6933011264439" y="23.076923076923077" as="targetPoint" />
          </mxGeometry>
        </mxCell>
        <mxCell id="y0iXgwqpWS010kWWXGdw-94" value="" style="endArrow=none;html=1;rounded=0;" parent="y0iXgwqpWS010kWWXGdw-97" edge="1">
          <mxGeometry width="50" height="50" relative="1" as="geometry">
            <mxPoint x="184.61626766795015" y="61.53846153846154" as="sourcePoint" />
            <mxPoint x="184.61626766795015" y="53.84615384615385" as="targetPoint" />
          </mxGeometry>
        </mxCell>
        <mxCell id="y0iXgwqpWS010kWWXGdw-95" value="" style="endArrow=none;html=1;rounded=0;exitX=0.577;exitY=-0.017;exitDx=0;exitDy=0;exitPerimeter=0;" parent="y0iXgwqpWS010kWWXGdw-97" source="y0iXgwqpWS010kWWXGdw-82" edge="1">
          <mxGeometry width="50" height="50" relative="1" as="geometry">
            <mxPoint x="169.23157869562098" y="61.53846153846154" as="sourcePoint" />
            <mxPoint x="238.4626790711023" y="53.84615384615385" as="targetPoint" />
          </mxGeometry>
        </mxCell>
        <mxCell id="y0iXgwqpWS010kWWXGdw-96" value="" style="endArrow=none;html=1;rounded=0;" parent="y0iXgwqpWS010kWWXGdw-97" edge="1">
          <mxGeometry width="50" height="50" relative="1" as="geometry">
            <mxPoint x="292.3090904742544" y="61.53846153846154" as="sourcePoint" />
            <mxPoint x="292.3090904742544" y="53.84615384615385" as="targetPoint" />
          </mxGeometry>
        </mxCell>
        <mxCell id="y0iXgwqpWS010kWWXGdw-239" value="&lt;span style=&quot;font-size: 14px;&quot;&gt;Switch&lt;/span&gt;" style="text;strokeColor=none;fillColor=none;html=1;fontSize=24;fontStyle=1;verticalAlign=middle;align=center;" parent="y0iXgwqpWS010kWWXGdw-97" vertex="1">
          <mxGeometry x="-50.000000000000014" y="77.50000000000001" width="87.5" height="22.5" as="geometry" />
        </mxCell>
        <mxCell id="y0iXgwqpWS010kWWXGdw-269" value="&lt;font style=&quot;font-size: 9px;&quot;&gt;Phòng Giám sát&lt;/font&gt;" style="text;strokeColor=none;fillColor=none;html=1;fontSize=24;fontStyle=1;verticalAlign=middle;align=center;" parent="y0iXgwqpWS010kWWXGdw-97" vertex="1">
          <mxGeometry x="30.770000000000042" y="77.5" width="130" height="20" as="geometry" />
        </mxCell>
        <mxCell id="y0iXgwqpWS010kWWXGdw-110" value="" style="group" parent="1" vertex="1" connectable="0">
          <mxGeometry x="590" y="30" width="170" height="89.99999999999999" as="geometry" />
        </mxCell>
        <mxCell id="y0iXgwqpWS010kWWXGdw-23" value="" style="rounded=1;whiteSpace=wrap;html=1;fillStyle=auto;labelBackgroundColor=#F8CECC;fillColor=#ffe6cc;strokeColor=#d79b00;movable=1;resizable=1;rotatable=1;deletable=1;editable=1;locked=0;connectable=1;" parent="y0iXgwqpWS010kWWXGdw-110" vertex="1">
          <mxGeometry width="170" height="84.71" as="geometry" />
        </mxCell>
        <mxCell id="y0iXgwqpWS010kWWXGdw-21" value="" style="fontColor=#0066CC;verticalAlign=top;verticalLabelPosition=bottom;labelPosition=center;align=center;html=1;outlineConnect=0;fillColor=#CCCCCC;strokeColor=#6881B3;gradientColor=none;gradientDirection=north;strokeWidth=2;shape=mxgraph.networks.switch;movable=1;resizable=1;rotatable=1;deletable=1;editable=1;locked=0;connectable=1;" parent="y0iXgwqpWS010kWWXGdw-110" vertex="1">
          <mxGeometry x="11.166451612903188" y="74.11764705882352" width="55.83225806451613" height="15.882352941176467" as="geometry" />
        </mxCell>
        <mxCell id="y0iXgwqpWS010kWWXGdw-24" value="" style="fontColor=#0066CC;verticalAlign=top;verticalLabelPosition=bottom;labelPosition=center;align=center;html=1;outlineConnect=0;fillColor=#CCCCCC;strokeColor=#6881B3;gradientColor=none;gradientDirection=north;strokeWidth=2;shape=mxgraph.networks.pc;movable=1;resizable=1;rotatable=1;deletable=1;editable=1;locked=0;connectable=1;" parent="y0iXgwqpWS010kWWXGdw-110" vertex="1">
          <mxGeometry x="11.166451612903188" y="15.882352941176464" width="39.880981935483874" height="26.470588235294116" as="geometry" />
        </mxCell>
        <mxCell id="y0iXgwqpWS010kWWXGdw-25" value="" style="fontColor=#0066CC;verticalAlign=top;verticalLabelPosition=bottom;labelPosition=center;align=center;html=1;outlineConnect=0;fillColor=#CCCCCC;strokeColor=#6881B3;gradientColor=none;gradientDirection=north;strokeWidth=2;shape=mxgraph.networks.pc;movable=1;resizable=1;rotatable=1;deletable=1;editable=1;locked=0;connectable=1;" parent="y0iXgwqpWS010kWWXGdw-110" vertex="1">
          <mxGeometry x="66.99870967741936" y="15.882352941176464" width="39.880981935483874" height="26.470588235294116" as="geometry" />
        </mxCell>
        <mxCell id="y0iXgwqpWS010kWWXGdw-26" value="" style="fontColor=#0066CC;verticalAlign=top;verticalLabelPosition=bottom;labelPosition=center;align=center;html=1;outlineConnect=0;fillColor=#CCCCCC;strokeColor=#6881B3;gradientColor=none;gradientDirection=north;strokeWidth=2;shape=mxgraph.networks.phone_1;movable=1;resizable=1;rotatable=1;deletable=1;editable=1;locked=0;connectable=1;" parent="y0iXgwqpWS010kWWXGdw-110" vertex="1">
          <mxGeometry x="122.17419354838705" y="18.52647058823529" width="31.902552258064517" height="21.176470588235293" as="geometry" />
        </mxCell>
        <mxCell id="y0iXgwqpWS010kWWXGdw-27" value="" style="fontColor=#0066CC;verticalAlign=top;verticalLabelPosition=bottom;labelPosition=center;align=center;html=1;outlineConnect=0;fillColor=#CCCCCC;strokeColor=#6881B3;gradientColor=none;gradientDirection=north;strokeWidth=2;shape=mxgraph.networks.monitor;movable=1;resizable=1;rotatable=1;deletable=1;editable=1;locked=0;connectable=1;" parent="y0iXgwqpWS010kWWXGdw-110" vertex="1">
          <mxGeometry x="87.81757419354847" y="52.94117647058823" width="34.359171612903225" height="26.470588235294116" as="geometry" />
        </mxCell>
        <mxCell id="y0iXgwqpWS010kWWXGdw-63" value="" style="fontColor=#0066CC;verticalAlign=top;verticalLabelPosition=bottom;labelPosition=center;align=center;html=1;outlineConnect=0;fillColor=#CCCCCC;strokeColor=#6881B3;gradientColor=none;gradientDirection=north;strokeWidth=2;shape=mxgraph.networks.printer;" parent="y0iXgwqpWS010kWWXGdw-110" vertex="1">
          <mxGeometry x="128.41000000000008" y="49.41" width="30" height="30" as="geometry" />
        </mxCell>
        <mxCell id="y0iXgwqpWS010kWWXGdw-65" value="" style="endArrow=none;html=1;rounded=0;exitX=0.5;exitY=0;exitDx=0;exitDy=0;exitPerimeter=0;entryX=0;entryY=0.5;entryDx=0;entryDy=0;entryPerimeter=0;" parent="y0iXgwqpWS010kWWXGdw-110" source="y0iXgwqpWS010kWWXGdw-21" target="y0iXgwqpWS010kWWXGdw-27" edge="1">
          <mxGeometry width="50" height="50" relative="1" as="geometry">
            <mxPoint x="90" y="110" as="sourcePoint" />
            <mxPoint x="140" y="60" as="targetPoint" />
            <Array as="points">
              <mxPoint x="39" y="66" />
            </Array>
          </mxGeometry>
        </mxCell>
        <mxCell id="y0iXgwqpWS010kWWXGdw-98" value="" style="endArrow=none;html=1;rounded=0;entryX=0.5;entryY=0;entryDx=0;entryDy=0;entryPerimeter=0;exitX=0.5;exitY=1;exitDx=0;exitDy=0;exitPerimeter=0;" parent="y0iXgwqpWS010kWWXGdw-110" source="y0iXgwqpWS010kWWXGdw-26" target="y0iXgwqpWS010kWWXGdw-21" edge="1">
          <mxGeometry width="50" height="50" relative="1" as="geometry">
            <mxPoint x="100" y="110" as="sourcePoint" />
            <mxPoint x="150" y="60" as="targetPoint" />
            <Array as="points">
              <mxPoint x="120" y="40" />
              <mxPoint x="120" y="50" />
              <mxPoint x="39" y="50" />
            </Array>
          </mxGeometry>
        </mxCell>
        <mxCell id="y0iXgwqpWS010kWWXGdw-99" value="" style="endArrow=none;html=1;rounded=0;" parent="y0iXgwqpWS010kWWXGdw-110" target="y0iXgwqpWS010kWWXGdw-63" edge="1">
          <mxGeometry width="50" height="50" relative="1" as="geometry">
            <mxPoint x="120" y="50" as="sourcePoint" />
            <mxPoint x="100" y="20" as="targetPoint" />
            <Array as="points">
              <mxPoint x="140" y="50" />
            </Array>
          </mxGeometry>
        </mxCell>
        <mxCell id="y0iXgwqpWS010kWWXGdw-100" value="" style="endArrow=none;html=1;rounded=0;" parent="y0iXgwqpWS010kWWXGdw-110" edge="1">
          <mxGeometry width="50" height="50" relative="1" as="geometry">
            <mxPoint x="88" y="50" as="sourcePoint" />
            <mxPoint x="87.96477853017882" y="42.349999999999994" as="targetPoint" />
          </mxGeometry>
        </mxCell>
        <mxCell id="y0iXgwqpWS010kWWXGdw-102" value="" style="endArrow=none;html=1;rounded=0;exitX=0.5;exitY=0;exitDx=0;exitDy=0;exitPerimeter=0;" parent="y0iXgwqpWS010kWWXGdw-110" source="y0iXgwqpWS010kWWXGdw-21" target="y0iXgwqpWS010kWWXGdw-24" edge="1">
          <mxGeometry width="50" height="50" relative="1" as="geometry">
            <mxPoint x="40" y="70" as="sourcePoint" />
            <mxPoint x="90" y="20" as="targetPoint" />
            <Array as="points">
              <mxPoint x="39" y="50" />
            </Array>
          </mxGeometry>
        </mxCell>
        <mxCell id="y0iXgwqpWS010kWWXGdw-104" value="" style="fontColor=#0066CC;verticalAlign=top;verticalLabelPosition=bottom;labelPosition=center;align=center;html=1;outlineConnect=0;fillColor=#CCCCCC;strokeColor=#6881B3;gradientColor=none;gradientDirection=north;strokeWidth=2;shape=mxgraph.networks.wireless_modem;" parent="y0iXgwqpWS010kWWXGdw-110" vertex="1">
          <mxGeometry x="10" y="49.41" width="23.53" height="20" as="geometry" />
        </mxCell>
        <mxCell id="y0iXgwqpWS010kWWXGdw-105" value="" style="endArrow=none;html=1;rounded=0;entryX=0.5;entryY=0;entryDx=0;entryDy=0;entryPerimeter=0;" parent="y0iXgwqpWS010kWWXGdw-110" source="y0iXgwqpWS010kWWXGdw-104" target="y0iXgwqpWS010kWWXGdw-21" edge="1">
          <mxGeometry width="50" height="50" relative="1" as="geometry">
            <mxPoint x="30" y="90" as="sourcePoint" />
            <mxPoint x="40" y="70" as="targetPoint" />
            <Array as="points">
              <mxPoint x="39" y="70" />
            </Array>
          </mxGeometry>
        </mxCell>
        <mxCell id="y0iXgwqpWS010kWWXGdw-126" value="" style="group" parent="1" vertex="1" connectable="0">
          <mxGeometry x="556.67" y="310" width="283.33" height="150" as="geometry" />
        </mxCell>
        <mxCell id="y0iXgwqpWS010kWWXGdw-127" value="" style="rounded=1;whiteSpace=wrap;html=1;fillStyle=auto;labelBackgroundColor=#F8CECC;fillColor=#ffe6cc;strokeColor=#d79b00;movable=1;resizable=1;rotatable=1;deletable=1;editable=1;locked=0;connectable=1;" parent="y0iXgwqpWS010kWWXGdw-126" vertex="1">
          <mxGeometry width="283.33" height="141.18333333333334" as="geometry" />
        </mxCell>
        <mxCell id="y0iXgwqpWS010kWWXGdw-128" value="" style="fontColor=#0066CC;verticalAlign=top;verticalLabelPosition=bottom;labelPosition=center;align=center;html=1;outlineConnect=0;fillColor=#CCCCCC;strokeColor=#6881B3;gradientColor=none;gradientDirection=north;strokeWidth=2;shape=mxgraph.networks.switch;movable=1;resizable=1;rotatable=1;deletable=1;editable=1;locked=0;connectable=1;" parent="y0iXgwqpWS010kWWXGdw-126" vertex="1">
          <mxGeometry x="18.610533738140354" y="123.52941176470588" width="93.05266869070208" height="26.470588235294112" as="geometry" />
        </mxCell>
        <mxCell id="y0iXgwqpWS010kWWXGdw-129" value="" style="fontColor=#0066CC;verticalAlign=top;verticalLabelPosition=bottom;labelPosition=center;align=center;html=1;outlineConnect=0;fillColor=#CCCCCC;strokeColor=#6881B3;gradientColor=none;gradientDirection=north;strokeWidth=2;shape=mxgraph.networks.pc;movable=1;resizable=1;rotatable=1;deletable=1;editable=1;locked=0;connectable=1;" parent="y0iXgwqpWS010kWWXGdw-126" vertex="1">
          <mxGeometry x="18.610533738140354" y="26.47058823529411" width="66.4675212457685" height="44.11764705882353" as="geometry" />
        </mxCell>
        <mxCell id="y0iXgwqpWS010kWWXGdw-130" value="" style="fontColor=#0066CC;verticalAlign=top;verticalLabelPosition=bottom;labelPosition=center;align=center;html=1;outlineConnect=0;fillColor=#CCCCCC;strokeColor=#6881B3;gradientColor=none;gradientDirection=north;strokeWidth=2;shape=mxgraph.networks.pc;movable=1;resizable=1;rotatable=1;deletable=1;editable=1;locked=0;connectable=1;" parent="y0iXgwqpWS010kWWXGdw-126" vertex="1">
          <mxGeometry x="111.6632024288425" y="26.47058823529411" width="66.4675212457685" height="44.11764705882353" as="geometry" />
        </mxCell>
        <mxCell id="y0iXgwqpWS010kWWXGdw-131" value="" style="fontColor=#0066CC;verticalAlign=top;verticalLabelPosition=bottom;labelPosition=center;align=center;html=1;outlineConnect=0;fillColor=#CCCCCC;strokeColor=#6881B3;gradientColor=none;gradientDirection=north;strokeWidth=2;shape=mxgraph.networks.phone_1;movable=1;resizable=1;rotatable=1;deletable=1;editable=1;locked=0;connectable=1;" parent="y0iXgwqpWS010kWWXGdw-126" vertex="1">
          <mxGeometry x="203.62126034155588" y="30.877450980392155" width="53.17029488986717" height="35.294117647058826" as="geometry" />
        </mxCell>
        <mxCell id="y0iXgwqpWS010kWWXGdw-132" value="" style="fontColor=#0066CC;verticalAlign=top;verticalLabelPosition=bottom;labelPosition=center;align=center;html=1;outlineConnect=0;fillColor=#CCCCCC;strokeColor=#6881B3;gradientColor=none;gradientDirection=north;strokeWidth=2;shape=mxgraph.networks.printer;" parent="y0iXgwqpWS010kWWXGdw-126" vertex="1">
          <mxGeometry x="214.01414882352955" y="82.35000000000001" width="49.999411764705876" height="50.00000000000001" as="geometry" />
        </mxCell>
        <mxCell id="y0iXgwqpWS010kWWXGdw-133" value="" style="endArrow=none;html=1;rounded=0;entryX=0.5;entryY=0;entryDx=0;entryDy=0;entryPerimeter=0;exitX=0.5;exitY=1;exitDx=0;exitDy=0;exitPerimeter=0;" parent="y0iXgwqpWS010kWWXGdw-126" source="y0iXgwqpWS010kWWXGdw-131" target="y0iXgwqpWS010kWWXGdw-128" edge="1">
          <mxGeometry width="50" height="50" relative="1" as="geometry">
            <mxPoint x="166.66470588235293" y="183.33333333333337" as="sourcePoint" />
            <mxPoint x="249.9970588235294" y="100.00000000000001" as="targetPoint" />
            <Array as="points">
              <mxPoint x="199.9976470588235" y="66.66666666666667" />
              <mxPoint x="199.9976470588235" y="83.33333333333334" />
              <mxPoint x="64.99923529411764" y="83.33333333333334" />
            </Array>
          </mxGeometry>
        </mxCell>
        <mxCell id="y0iXgwqpWS010kWWXGdw-134" value="" style="endArrow=none;html=1;rounded=0;" parent="y0iXgwqpWS010kWWXGdw-126" target="y0iXgwqpWS010kWWXGdw-132" edge="1">
          <mxGeometry width="50" height="50" relative="1" as="geometry">
            <mxPoint x="199.9976470588235" y="83.33333333333334" as="sourcePoint" />
            <mxPoint x="166.66470588235293" y="33.333333333333336" as="targetPoint" />
            <Array as="points">
              <mxPoint x="233.33058823529407" y="83.33333333333334" />
              <mxPoint x="216.66411764705882" y="83.33333333333334" />
            </Array>
          </mxGeometry>
        </mxCell>
        <mxCell id="y0iXgwqpWS010kWWXGdw-135" value="" style="endArrow=none;html=1;rounded=0;" parent="y0iXgwqpWS010kWWXGdw-126" edge="1">
          <mxGeometry width="50" height="50" relative="1" as="geometry">
            <mxPoint x="146.66494117647056" y="83.33333333333334" as="sourcePoint" />
            <mxPoint x="146.60623941738567" y="70.58333333333333" as="targetPoint" />
          </mxGeometry>
        </mxCell>
        <mxCell id="y0iXgwqpWS010kWWXGdw-136" value="" style="endArrow=none;html=1;rounded=0;exitX=0.5;exitY=0;exitDx=0;exitDy=0;exitPerimeter=0;" parent="y0iXgwqpWS010kWWXGdw-126" source="y0iXgwqpWS010kWWXGdw-128" target="y0iXgwqpWS010kWWXGdw-129" edge="1">
          <mxGeometry width="50" height="50" relative="1" as="geometry">
            <mxPoint x="66.66588235294117" y="116.66666666666667" as="sourcePoint" />
            <mxPoint x="149.99823529411765" y="33.333333333333336" as="targetPoint" />
            <Array as="points">
              <mxPoint x="64.99923529411764" y="83.33333333333334" />
            </Array>
          </mxGeometry>
        </mxCell>
        <mxCell id="y0iXgwqpWS010kWWXGdw-137" value="" style="fontColor=#0066CC;verticalAlign=top;verticalLabelPosition=bottom;labelPosition=center;align=center;html=1;outlineConnect=0;fillColor=#CCCCCC;strokeColor=#6881B3;gradientColor=none;gradientDirection=north;strokeWidth=2;shape=mxgraph.networks.wireless_modem;" parent="y0iXgwqpWS010kWWXGdw-126" vertex="1">
          <mxGeometry x="149.99823529411765" y="90.68333333333334" width="39.21620529411765" height="33.333333333333336" as="geometry" />
        </mxCell>
        <mxCell id="y0iXgwqpWS010kWWXGdw-138" value="" style="endArrow=none;html=1;rounded=0;entryX=0.5;entryY=0;entryDx=0;entryDy=0;entryPerimeter=0;" parent="y0iXgwqpWS010kWWXGdw-126" source="y0iXgwqpWS010kWWXGdw-137" target="y0iXgwqpWS010kWWXGdw-128" edge="1">
          <mxGeometry width="50" height="50" relative="1" as="geometry">
            <mxPoint x="49.999411764705876" y="150.00000000000003" as="sourcePoint" />
            <mxPoint x="66.66588235294117" y="116.66666666666667" as="targetPoint" />
            <Array as="points">
              <mxPoint x="64.99923529411764" y="106.66666666666669" />
            </Array>
          </mxGeometry>
        </mxCell>
        <mxCell id="y0iXgwqpWS010kWWXGdw-270" value="&lt;font style=&quot;font-size: 9px;&quot;&gt;Ban Nội chính&lt;/font&gt;" style="text;strokeColor=none;fillColor=none;html=1;fontSize=24;fontStyle=1;verticalAlign=middle;align=center;" parent="y0iXgwqpWS010kWWXGdw-126" vertex="1">
          <mxGeometry x="33.330000000000155" y="2.7533531010703882e-14" width="130" height="20" as="geometry" />
        </mxCell>
        <mxCell id="y0iXgwqpWS010kWWXGdw-165" value="" style="group" parent="1" vertex="1" connectable="0">
          <mxGeometry x="880" y="310" width="283.33" height="150" as="geometry" />
        </mxCell>
        <mxCell id="y0iXgwqpWS010kWWXGdw-166" value="" style="rounded=1;whiteSpace=wrap;html=1;fillStyle=auto;labelBackgroundColor=#F8CECC;fillColor=#ffe6cc;strokeColor=#d79b00;movable=1;resizable=1;rotatable=1;deletable=1;editable=1;locked=0;connectable=1;" parent="y0iXgwqpWS010kWWXGdw-165" vertex="1">
          <mxGeometry width="283.33" height="141.18333333333334" as="geometry" />
        </mxCell>
        <mxCell id="y0iXgwqpWS010kWWXGdw-167" value="" style="fontColor=#0066CC;verticalAlign=top;verticalLabelPosition=bottom;labelPosition=center;align=center;html=1;outlineConnect=0;fillColor=#CCCCCC;strokeColor=#6881B3;gradientColor=none;gradientDirection=north;strokeWidth=2;shape=mxgraph.networks.switch;movable=1;resizable=1;rotatable=1;deletable=1;editable=1;locked=0;connectable=1;" parent="y0iXgwqpWS010kWWXGdw-165" vertex="1">
          <mxGeometry x="18.610533738140354" y="123.52941176470588" width="93.05266869070208" height="26.470588235294112" as="geometry" />
        </mxCell>
        <mxCell id="y0iXgwqpWS010kWWXGdw-168" value="" style="fontColor=#0066CC;verticalAlign=top;verticalLabelPosition=bottom;labelPosition=center;align=center;html=1;outlineConnect=0;fillColor=#CCCCCC;strokeColor=#6881B3;gradientColor=none;gradientDirection=north;strokeWidth=2;shape=mxgraph.networks.pc;movable=1;resizable=1;rotatable=1;deletable=1;editable=1;locked=0;connectable=1;" parent="y0iXgwqpWS010kWWXGdw-165" vertex="1">
          <mxGeometry x="18.610533738140354" y="26.47058823529411" width="66.4675212457685" height="44.11764705882353" as="geometry" />
        </mxCell>
        <mxCell id="y0iXgwqpWS010kWWXGdw-169" value="" style="fontColor=#0066CC;verticalAlign=top;verticalLabelPosition=bottom;labelPosition=center;align=center;html=1;outlineConnect=0;fillColor=#CCCCCC;strokeColor=#6881B3;gradientColor=none;gradientDirection=north;strokeWidth=2;shape=mxgraph.networks.pc;movable=1;resizable=1;rotatable=1;deletable=1;editable=1;locked=0;connectable=1;" parent="y0iXgwqpWS010kWWXGdw-165" vertex="1">
          <mxGeometry x="111.6632024288425" y="26.47058823529411" width="66.4675212457685" height="44.11764705882353" as="geometry" />
        </mxCell>
        <mxCell id="y0iXgwqpWS010kWWXGdw-170" value="" style="fontColor=#0066CC;verticalAlign=top;verticalLabelPosition=bottom;labelPosition=center;align=center;html=1;outlineConnect=0;fillColor=#CCCCCC;strokeColor=#6881B3;gradientColor=none;gradientDirection=north;strokeWidth=2;shape=mxgraph.networks.phone_1;movable=1;resizable=1;rotatable=1;deletable=1;editable=1;locked=0;connectable=1;" parent="y0iXgwqpWS010kWWXGdw-165" vertex="1">
          <mxGeometry x="203.62126034155588" y="30.877450980392155" width="53.17029488986717" height="35.294117647058826" as="geometry" />
        </mxCell>
        <mxCell id="y0iXgwqpWS010kWWXGdw-171" value="" style="fontColor=#0066CC;verticalAlign=top;verticalLabelPosition=bottom;labelPosition=center;align=center;html=1;outlineConnect=0;fillColor=#CCCCCC;strokeColor=#6881B3;gradientColor=none;gradientDirection=north;strokeWidth=2;shape=mxgraph.networks.printer;" parent="y0iXgwqpWS010kWWXGdw-165" vertex="1">
          <mxGeometry x="214.01414882352955" y="82.35000000000001" width="49.999411764705876" height="50.00000000000001" as="geometry" />
        </mxCell>
        <mxCell id="y0iXgwqpWS010kWWXGdw-172" value="" style="endArrow=none;html=1;rounded=0;entryX=0.5;entryY=0;entryDx=0;entryDy=0;entryPerimeter=0;exitX=0.5;exitY=1;exitDx=0;exitDy=0;exitPerimeter=0;" parent="y0iXgwqpWS010kWWXGdw-165" source="y0iXgwqpWS010kWWXGdw-170" target="y0iXgwqpWS010kWWXGdw-167" edge="1">
          <mxGeometry width="50" height="50" relative="1" as="geometry">
            <mxPoint x="166.66470588235293" y="183.33333333333337" as="sourcePoint" />
            <mxPoint x="249.9970588235294" y="100.00000000000001" as="targetPoint" />
            <Array as="points">
              <mxPoint x="199.9976470588235" y="66.66666666666667" />
              <mxPoint x="199.9976470588235" y="83.33333333333334" />
              <mxPoint x="64.99923529411764" y="83.33333333333334" />
            </Array>
          </mxGeometry>
        </mxCell>
        <mxCell id="y0iXgwqpWS010kWWXGdw-173" value="" style="endArrow=none;html=1;rounded=0;" parent="y0iXgwqpWS010kWWXGdw-165" target="y0iXgwqpWS010kWWXGdw-171" edge="1">
          <mxGeometry width="50" height="50" relative="1" as="geometry">
            <mxPoint x="199.9976470588235" y="83.33333333333334" as="sourcePoint" />
            <mxPoint x="166.66470588235293" y="33.333333333333336" as="targetPoint" />
            <Array as="points">
              <mxPoint x="233.33058823529407" y="83.33333333333334" />
              <mxPoint x="216.66411764705882" y="83.33333333333334" />
            </Array>
          </mxGeometry>
        </mxCell>
        <mxCell id="y0iXgwqpWS010kWWXGdw-174" value="" style="endArrow=none;html=1;rounded=0;" parent="y0iXgwqpWS010kWWXGdw-165" edge="1">
          <mxGeometry width="50" height="50" relative="1" as="geometry">
            <mxPoint x="146.66494117647056" y="83.33333333333334" as="sourcePoint" />
            <mxPoint x="146.60623941738567" y="70.58333333333333" as="targetPoint" />
          </mxGeometry>
        </mxCell>
        <mxCell id="y0iXgwqpWS010kWWXGdw-175" value="" style="endArrow=none;html=1;rounded=0;exitX=0.5;exitY=0;exitDx=0;exitDy=0;exitPerimeter=0;" parent="y0iXgwqpWS010kWWXGdw-165" source="y0iXgwqpWS010kWWXGdw-167" target="y0iXgwqpWS010kWWXGdw-168" edge="1">
          <mxGeometry width="50" height="50" relative="1" as="geometry">
            <mxPoint x="66.66588235294117" y="116.66666666666667" as="sourcePoint" />
            <mxPoint x="149.99823529411765" y="33.333333333333336" as="targetPoint" />
            <Array as="points">
              <mxPoint x="64.99923529411764" y="83.33333333333334" />
            </Array>
          </mxGeometry>
        </mxCell>
        <mxCell id="y0iXgwqpWS010kWWXGdw-176" value="" style="fontColor=#0066CC;verticalAlign=top;verticalLabelPosition=bottom;labelPosition=center;align=center;html=1;outlineConnect=0;fillColor=#CCCCCC;strokeColor=#6881B3;gradientColor=none;gradientDirection=north;strokeWidth=2;shape=mxgraph.networks.wireless_modem;" parent="y0iXgwqpWS010kWWXGdw-165" vertex="1">
          <mxGeometry x="149.99823529411765" y="90.68333333333334" width="39.21620529411765" height="33.333333333333336" as="geometry" />
        </mxCell>
        <mxCell id="y0iXgwqpWS010kWWXGdw-177" value="" style="endArrow=none;html=1;rounded=0;entryX=0.5;entryY=0;entryDx=0;entryDy=0;entryPerimeter=0;" parent="y0iXgwqpWS010kWWXGdw-165" source="y0iXgwqpWS010kWWXGdw-176" target="y0iXgwqpWS010kWWXGdw-167" edge="1">
          <mxGeometry width="50" height="50" relative="1" as="geometry">
            <mxPoint x="49.999411764705876" y="150.00000000000003" as="sourcePoint" />
            <mxPoint x="66.66588235294117" y="116.66666666666667" as="targetPoint" />
            <Array as="points">
              <mxPoint x="64.99923529411764" y="106.66666666666669" />
            </Array>
          </mxGeometry>
        </mxCell>
        <mxCell id="y0iXgwqpWS010kWWXGdw-271" value="&lt;font style=&quot;font-size: 9px;&quot;&gt;Ban Tài chính&lt;/font&gt;" style="text;strokeColor=none;fillColor=none;html=1;fontSize=24;fontStyle=1;verticalAlign=middle;align=center;" parent="y0iXgwqpWS010kWWXGdw-165" vertex="1">
          <mxGeometry x="30.000000000000114" y="2.7533531010703882e-14" width="130" height="20" as="geometry" />
        </mxCell>
        <mxCell id="y0iXgwqpWS010kWWXGdw-178" value="" style="group" parent="1" vertex="1" connectable="0">
          <mxGeometry x="556.67" y="520" width="283.33" height="150" as="geometry" />
        </mxCell>
        <mxCell id="y0iXgwqpWS010kWWXGdw-179" value="" style="rounded=1;whiteSpace=wrap;html=1;fillStyle=auto;labelBackgroundColor=#F8CECC;fillColor=#ffe6cc;strokeColor=#d79b00;movable=1;resizable=1;rotatable=1;deletable=1;editable=1;locked=0;connectable=1;" parent="y0iXgwqpWS010kWWXGdw-178" vertex="1">
          <mxGeometry width="283.33" height="141.18333333333334" as="geometry" />
        </mxCell>
        <mxCell id="y0iXgwqpWS010kWWXGdw-180" value="" style="fontColor=#0066CC;verticalAlign=top;verticalLabelPosition=bottom;labelPosition=center;align=center;html=1;outlineConnect=0;fillColor=#CCCCCC;strokeColor=#6881B3;gradientColor=none;gradientDirection=north;strokeWidth=2;shape=mxgraph.networks.switch;movable=1;resizable=1;rotatable=1;deletable=1;editable=1;locked=0;connectable=1;" parent="y0iXgwqpWS010kWWXGdw-178" vertex="1">
          <mxGeometry x="18.610533738140354" y="123.52941176470588" width="93.05266869070208" height="26.470588235294112" as="geometry" />
        </mxCell>
        <mxCell id="y0iXgwqpWS010kWWXGdw-181" value="" style="fontColor=#0066CC;verticalAlign=top;verticalLabelPosition=bottom;labelPosition=center;align=center;html=1;outlineConnect=0;fillColor=#CCCCCC;strokeColor=#6881B3;gradientColor=none;gradientDirection=north;strokeWidth=2;shape=mxgraph.networks.pc;movable=1;resizable=1;rotatable=1;deletable=1;editable=1;locked=0;connectable=1;" parent="y0iXgwqpWS010kWWXGdw-178" vertex="1">
          <mxGeometry x="18.610533738140354" y="26.47058823529411" width="66.4675212457685" height="44.11764705882353" as="geometry" />
        </mxCell>
        <mxCell id="y0iXgwqpWS010kWWXGdw-182" value="" style="fontColor=#0066CC;verticalAlign=top;verticalLabelPosition=bottom;labelPosition=center;align=center;html=1;outlineConnect=0;fillColor=#CCCCCC;strokeColor=#6881B3;gradientColor=none;gradientDirection=north;strokeWidth=2;shape=mxgraph.networks.pc;movable=1;resizable=1;rotatable=1;deletable=1;editable=1;locked=0;connectable=1;" parent="y0iXgwqpWS010kWWXGdw-178" vertex="1">
          <mxGeometry x="111.6632024288425" y="26.47058823529411" width="66.4675212457685" height="44.11764705882353" as="geometry" />
        </mxCell>
        <mxCell id="y0iXgwqpWS010kWWXGdw-183" value="" style="fontColor=#0066CC;verticalAlign=top;verticalLabelPosition=bottom;labelPosition=center;align=center;html=1;outlineConnect=0;fillColor=#CCCCCC;strokeColor=#6881B3;gradientColor=none;gradientDirection=north;strokeWidth=2;shape=mxgraph.networks.phone_1;movable=1;resizable=1;rotatable=1;deletable=1;editable=1;locked=0;connectable=1;" parent="y0iXgwqpWS010kWWXGdw-178" vertex="1">
          <mxGeometry x="203.62126034155588" y="30.877450980392155" width="53.17029488986717" height="35.294117647058826" as="geometry" />
        </mxCell>
        <mxCell id="y0iXgwqpWS010kWWXGdw-184" value="" style="fontColor=#0066CC;verticalAlign=top;verticalLabelPosition=bottom;labelPosition=center;align=center;html=1;outlineConnect=0;fillColor=#CCCCCC;strokeColor=#6881B3;gradientColor=none;gradientDirection=north;strokeWidth=2;shape=mxgraph.networks.printer;" parent="y0iXgwqpWS010kWWXGdw-178" vertex="1">
          <mxGeometry x="214.01414882352955" y="82.35000000000001" width="49.999411764705876" height="50.00000000000001" as="geometry" />
        </mxCell>
        <mxCell id="y0iXgwqpWS010kWWXGdw-185" value="" style="endArrow=none;html=1;rounded=0;entryX=0.5;entryY=0;entryDx=0;entryDy=0;entryPerimeter=0;exitX=0.5;exitY=1;exitDx=0;exitDy=0;exitPerimeter=0;" parent="y0iXgwqpWS010kWWXGdw-178" source="y0iXgwqpWS010kWWXGdw-183" target="y0iXgwqpWS010kWWXGdw-180" edge="1">
          <mxGeometry width="50" height="50" relative="1" as="geometry">
            <mxPoint x="166.66470588235293" y="183.33333333333337" as="sourcePoint" />
            <mxPoint x="249.9970588235294" y="100.00000000000001" as="targetPoint" />
            <Array as="points">
              <mxPoint x="199.9976470588235" y="66.66666666666667" />
              <mxPoint x="199.9976470588235" y="83.33333333333334" />
              <mxPoint x="64.99923529411764" y="83.33333333333334" />
            </Array>
          </mxGeometry>
        </mxCell>
        <mxCell id="y0iXgwqpWS010kWWXGdw-186" value="" style="endArrow=none;html=1;rounded=0;" parent="y0iXgwqpWS010kWWXGdw-178" target="y0iXgwqpWS010kWWXGdw-184" edge="1">
          <mxGeometry width="50" height="50" relative="1" as="geometry">
            <mxPoint x="199.9976470588235" y="83.33333333333334" as="sourcePoint" />
            <mxPoint x="166.66470588235293" y="33.333333333333336" as="targetPoint" />
            <Array as="points">
              <mxPoint x="233.33058823529407" y="83.33333333333334" />
              <mxPoint x="216.66411764705882" y="83.33333333333334" />
            </Array>
          </mxGeometry>
        </mxCell>
        <mxCell id="y0iXgwqpWS010kWWXGdw-187" value="" style="endArrow=none;html=1;rounded=0;" parent="y0iXgwqpWS010kWWXGdw-178" edge="1">
          <mxGeometry width="50" height="50" relative="1" as="geometry">
            <mxPoint x="146.66494117647056" y="83.33333333333334" as="sourcePoint" />
            <mxPoint x="146.60623941738567" y="70.58333333333333" as="targetPoint" />
          </mxGeometry>
        </mxCell>
        <mxCell id="y0iXgwqpWS010kWWXGdw-188" value="" style="endArrow=none;html=1;rounded=0;exitX=0.5;exitY=0;exitDx=0;exitDy=0;exitPerimeter=0;" parent="y0iXgwqpWS010kWWXGdw-178" source="y0iXgwqpWS010kWWXGdw-180" target="y0iXgwqpWS010kWWXGdw-181" edge="1">
          <mxGeometry width="50" height="50" relative="1" as="geometry">
            <mxPoint x="66.66588235294117" y="116.66666666666667" as="sourcePoint" />
            <mxPoint x="149.99823529411765" y="33.333333333333336" as="targetPoint" />
            <Array as="points">
              <mxPoint x="64.99923529411764" y="83.33333333333334" />
            </Array>
          </mxGeometry>
        </mxCell>
        <mxCell id="y0iXgwqpWS010kWWXGdw-189" value="" style="fontColor=#0066CC;verticalAlign=top;verticalLabelPosition=bottom;labelPosition=center;align=center;html=1;outlineConnect=0;fillColor=#CCCCCC;strokeColor=#6881B3;gradientColor=none;gradientDirection=north;strokeWidth=2;shape=mxgraph.networks.wireless_modem;" parent="y0iXgwqpWS010kWWXGdw-178" vertex="1">
          <mxGeometry x="149.99823529411765" y="90.68333333333334" width="39.21620529411765" height="33.333333333333336" as="geometry" />
        </mxCell>
        <mxCell id="y0iXgwqpWS010kWWXGdw-190" value="" style="endArrow=none;html=1;rounded=0;entryX=0.5;entryY=0;entryDx=0;entryDy=0;entryPerimeter=0;" parent="y0iXgwqpWS010kWWXGdw-178" source="y0iXgwqpWS010kWWXGdw-189" target="y0iXgwqpWS010kWWXGdw-180" edge="1">
          <mxGeometry width="50" height="50" relative="1" as="geometry">
            <mxPoint x="49.999411764705876" y="150.00000000000003" as="sourcePoint" />
            <mxPoint x="66.66588235294117" y="116.66666666666667" as="targetPoint" />
            <Array as="points">
              <mxPoint x="64.99923529411764" y="106.66666666666669" />
            </Array>
          </mxGeometry>
        </mxCell>
        <mxCell id="y0iXgwqpWS010kWWXGdw-273" value="&lt;font style=&quot;font-size: 9px;&quot;&gt;Phòng Marketing&lt;/font&gt;" style="text;strokeColor=none;fillColor=none;html=1;fontSize=24;fontStyle=1;verticalAlign=middle;align=center;" parent="y0iXgwqpWS010kWWXGdw-178" vertex="1">
          <mxGeometry x="33.33000000000011" width="130" height="20" as="geometry" />
        </mxCell>
        <mxCell id="y0iXgwqpWS010kWWXGdw-191" value="" style="group" parent="1" vertex="1" connectable="0">
          <mxGeometry x="880" y="520" width="283.33" height="150" as="geometry" />
        </mxCell>
        <mxCell id="y0iXgwqpWS010kWWXGdw-192" value="" style="rounded=1;whiteSpace=wrap;html=1;fillStyle=auto;labelBackgroundColor=#F8CECC;fillColor=#ffe6cc;strokeColor=#d79b00;movable=1;resizable=1;rotatable=1;deletable=1;editable=1;locked=0;connectable=1;" parent="y0iXgwqpWS010kWWXGdw-191" vertex="1">
          <mxGeometry width="283.33" height="141.18333333333334" as="geometry" />
        </mxCell>
        <mxCell id="y0iXgwqpWS010kWWXGdw-193" value="" style="fontColor=#0066CC;verticalAlign=top;verticalLabelPosition=bottom;labelPosition=center;align=center;html=1;outlineConnect=0;fillColor=#CCCCCC;strokeColor=#6881B3;gradientColor=none;gradientDirection=north;strokeWidth=2;shape=mxgraph.networks.switch;movable=1;resizable=1;rotatable=1;deletable=1;editable=1;locked=0;connectable=1;" parent="y0iXgwqpWS010kWWXGdw-191" vertex="1">
          <mxGeometry x="18.610533738140354" y="123.52941176470588" width="93.05266869070208" height="26.470588235294112" as="geometry" />
        </mxCell>
        <mxCell id="y0iXgwqpWS010kWWXGdw-194" value="" style="fontColor=#0066CC;verticalAlign=top;verticalLabelPosition=bottom;labelPosition=center;align=center;html=1;outlineConnect=0;fillColor=#CCCCCC;strokeColor=#6881B3;gradientColor=none;gradientDirection=north;strokeWidth=2;shape=mxgraph.networks.pc;movable=1;resizable=1;rotatable=1;deletable=1;editable=1;locked=0;connectable=1;" parent="y0iXgwqpWS010kWWXGdw-191" vertex="1">
          <mxGeometry x="18.610533738140354" y="26.47058823529411" width="66.4675212457685" height="44.11764705882353" as="geometry" />
        </mxCell>
        <mxCell id="y0iXgwqpWS010kWWXGdw-195" value="" style="fontColor=#0066CC;verticalAlign=top;verticalLabelPosition=bottom;labelPosition=center;align=center;html=1;outlineConnect=0;fillColor=#CCCCCC;strokeColor=#6881B3;gradientColor=none;gradientDirection=north;strokeWidth=2;shape=mxgraph.networks.pc;movable=1;resizable=1;rotatable=1;deletable=1;editable=1;locked=0;connectable=1;" parent="y0iXgwqpWS010kWWXGdw-191" vertex="1">
          <mxGeometry x="111.6632024288425" y="26.47058823529411" width="66.4675212457685" height="44.11764705882353" as="geometry" />
        </mxCell>
        <mxCell id="y0iXgwqpWS010kWWXGdw-196" value="" style="fontColor=#0066CC;verticalAlign=top;verticalLabelPosition=bottom;labelPosition=center;align=center;html=1;outlineConnect=0;fillColor=#CCCCCC;strokeColor=#6881B3;gradientColor=none;gradientDirection=north;strokeWidth=2;shape=mxgraph.networks.phone_1;movable=1;resizable=1;rotatable=1;deletable=1;editable=1;locked=0;connectable=1;" parent="y0iXgwqpWS010kWWXGdw-191" vertex="1">
          <mxGeometry x="203.62126034155588" y="30.877450980392155" width="53.17029488986717" height="35.294117647058826" as="geometry" />
        </mxCell>
        <mxCell id="y0iXgwqpWS010kWWXGdw-197" value="" style="fontColor=#0066CC;verticalAlign=top;verticalLabelPosition=bottom;labelPosition=center;align=center;html=1;outlineConnect=0;fillColor=#CCCCCC;strokeColor=#6881B3;gradientColor=none;gradientDirection=north;strokeWidth=2;shape=mxgraph.networks.printer;" parent="y0iXgwqpWS010kWWXGdw-191" vertex="1">
          <mxGeometry x="214.01414882352955" y="82.35000000000001" width="49.999411764705876" height="50.00000000000001" as="geometry" />
        </mxCell>
        <mxCell id="y0iXgwqpWS010kWWXGdw-198" value="" style="endArrow=none;html=1;rounded=0;entryX=0.5;entryY=0;entryDx=0;entryDy=0;entryPerimeter=0;exitX=0.5;exitY=1;exitDx=0;exitDy=0;exitPerimeter=0;" parent="y0iXgwqpWS010kWWXGdw-191" source="y0iXgwqpWS010kWWXGdw-196" target="y0iXgwqpWS010kWWXGdw-193" edge="1">
          <mxGeometry width="50" height="50" relative="1" as="geometry">
            <mxPoint x="166.66470588235293" y="183.33333333333337" as="sourcePoint" />
            <mxPoint x="249.9970588235294" y="100.00000000000001" as="targetPoint" />
            <Array as="points">
              <mxPoint x="199.9976470588235" y="66.66666666666667" />
              <mxPoint x="199.9976470588235" y="83.33333333333334" />
              <mxPoint x="64.99923529411764" y="83.33333333333334" />
            </Array>
          </mxGeometry>
        </mxCell>
        <mxCell id="y0iXgwqpWS010kWWXGdw-199" value="" style="endArrow=none;html=1;rounded=0;" parent="y0iXgwqpWS010kWWXGdw-191" target="y0iXgwqpWS010kWWXGdw-197" edge="1">
          <mxGeometry width="50" height="50" relative="1" as="geometry">
            <mxPoint x="199.9976470588235" y="83.33333333333334" as="sourcePoint" />
            <mxPoint x="166.66470588235293" y="33.333333333333336" as="targetPoint" />
            <Array as="points">
              <mxPoint x="233.33058823529407" y="83.33333333333334" />
              <mxPoint x="216.66411764705882" y="83.33333333333334" />
            </Array>
          </mxGeometry>
        </mxCell>
        <mxCell id="y0iXgwqpWS010kWWXGdw-200" value="" style="endArrow=none;html=1;rounded=0;" parent="y0iXgwqpWS010kWWXGdw-191" edge="1">
          <mxGeometry width="50" height="50" relative="1" as="geometry">
            <mxPoint x="146.66494117647056" y="83.33333333333334" as="sourcePoint" />
            <mxPoint x="146.60623941738567" y="70.58333333333333" as="targetPoint" />
          </mxGeometry>
        </mxCell>
        <mxCell id="y0iXgwqpWS010kWWXGdw-201" value="" style="endArrow=none;html=1;rounded=0;exitX=0.5;exitY=0;exitDx=0;exitDy=0;exitPerimeter=0;" parent="y0iXgwqpWS010kWWXGdw-191" source="y0iXgwqpWS010kWWXGdw-193" target="y0iXgwqpWS010kWWXGdw-194" edge="1">
          <mxGeometry width="50" height="50" relative="1" as="geometry">
            <mxPoint x="66.66588235294117" y="116.66666666666667" as="sourcePoint" />
            <mxPoint x="149.99823529411765" y="33.333333333333336" as="targetPoint" />
            <Array as="points">
              <mxPoint x="64.99923529411764" y="83.33333333333334" />
            </Array>
          </mxGeometry>
        </mxCell>
        <mxCell id="y0iXgwqpWS010kWWXGdw-202" value="" style="fontColor=#0066CC;verticalAlign=top;verticalLabelPosition=bottom;labelPosition=center;align=center;html=1;outlineConnect=0;fillColor=#CCCCCC;strokeColor=#6881B3;gradientColor=none;gradientDirection=north;strokeWidth=2;shape=mxgraph.networks.wireless_modem;" parent="y0iXgwqpWS010kWWXGdw-191" vertex="1">
          <mxGeometry x="149.99823529411765" y="90.68333333333334" width="39.21620529411765" height="33.333333333333336" as="geometry" />
        </mxCell>
        <mxCell id="y0iXgwqpWS010kWWXGdw-203" value="" style="endArrow=none;html=1;rounded=0;entryX=0.5;entryY=0;entryDx=0;entryDy=0;entryPerimeter=0;" parent="y0iXgwqpWS010kWWXGdw-191" source="y0iXgwqpWS010kWWXGdw-202" target="y0iXgwqpWS010kWWXGdw-193" edge="1">
          <mxGeometry width="50" height="50" relative="1" as="geometry">
            <mxPoint x="49.999411764705876" y="150.00000000000003" as="sourcePoint" />
            <mxPoint x="66.66588235294117" y="116.66666666666667" as="targetPoint" />
            <Array as="points">
              <mxPoint x="64.99923529411764" y="106.66666666666669" />
            </Array>
          </mxGeometry>
        </mxCell>
        <mxCell id="y0iXgwqpWS010kWWXGdw-274" value="&lt;font style=&quot;font-size: 9px;&quot;&gt;Phòng Kinh doanh&lt;/font&gt;" style="text;strokeColor=none;fillColor=none;html=1;fontSize=24;fontStyle=1;verticalAlign=middle;align=center;" parent="y0iXgwqpWS010kWWXGdw-191" vertex="1">
          <mxGeometry x="30.000000000000114" y="2.7533531010703882e-14" width="130" height="20" as="geometry" />
        </mxCell>
        <mxCell id="y0iXgwqpWS010kWWXGdw-276" style="edgeStyle=orthogonalEdgeStyle;rounded=0;orthogonalLoop=1;jettySize=auto;html=1;exitX=0.5;exitY=1;exitDx=0;exitDy=0;" parent="y0iXgwqpWS010kWWXGdw-191" source="y0iXgwqpWS010kWWXGdw-274" target="y0iXgwqpWS010kWWXGdw-274" edge="1">
          <mxGeometry relative="1" as="geometry" />
        </mxCell>
        <mxCell id="y0iXgwqpWS010kWWXGdw-204" value="" style="endArrow=none;html=1;rounded=0;exitX=1.001;exitY=0.783;exitDx=0;exitDy=0;exitPerimeter=0;" parent="1" source="y0iXgwqpWS010kWWXGdw-2" target="y0iXgwqpWS010kWWXGdw-3" edge="1">
          <mxGeometry width="50" height="50" relative="1" as="geometry">
            <mxPoint x="70.58999999999997" y="390" as="sourcePoint" />
            <mxPoint x="120.58999999999997" y="340" as="targetPoint" />
          </mxGeometry>
        </mxCell>
        <mxCell id="y0iXgwqpWS010kWWXGdw-205" value="" style="endArrow=none;html=1;rounded=0;" parent="1" target="y0iXgwqpWS010kWWXGdw-3" edge="1">
          <mxGeometry width="50" height="50" relative="1" as="geometry">
            <mxPoint x="170" y="550" as="sourcePoint" />
            <mxPoint x="230" y="420" as="targetPoint" />
          </mxGeometry>
        </mxCell>
        <mxCell id="y0iXgwqpWS010kWWXGdw-206" value="" style="endArrow=none;html=1;rounded=0;entryX=0;entryY=0.5;entryDx=0;entryDy=0;entryPerimeter=0;exitX=1.003;exitY=0.407;exitDx=0;exitDy=0;exitPerimeter=0;" parent="1" source="y0iXgwqpWS010kWWXGdw-4" target="y0iXgwqpWS010kWWXGdw-6" edge="1">
          <mxGeometry width="50" height="50" relative="1" as="geometry">
            <mxPoint x="180" y="470" as="sourcePoint" />
            <mxPoint x="230" y="420" as="targetPoint" />
          </mxGeometry>
        </mxCell>
        <mxCell id="y0iXgwqpWS010kWWXGdw-207" value="" style="endArrow=none;html=1;rounded=0;exitX=0.5;exitY=0;exitDx=0;exitDy=0;exitPerimeter=0;entryX=0.35;entryY=1.044;entryDx=0;entryDy=0;entryPerimeter=0;" parent="1" source="y0iXgwqpWS010kWWXGdw-6" target="y0iXgwqpWS010kWWXGdw-7" edge="1">
          <mxGeometry width="50" height="50" relative="1" as="geometry">
            <mxPoint x="180" y="470" as="sourcePoint" />
            <mxPoint x="230" y="420" as="targetPoint" />
          </mxGeometry>
        </mxCell>
        <mxCell id="y0iXgwqpWS010kWWXGdw-208" value="" style="endArrow=none;html=1;rounded=0;entryX=0;entryY=0.5;entryDx=0;entryDy=0;entryPerimeter=0;" parent="1" source="y0iXgwqpWS010kWWXGdw-7" target="y0iXgwqpWS010kWWXGdw-8" edge="1">
          <mxGeometry width="50" height="50" relative="1" as="geometry">
            <mxPoint x="340" y="410" as="sourcePoint" />
            <mxPoint x="390" y="360" as="targetPoint" />
          </mxGeometry>
        </mxCell>
        <mxCell id="y0iXgwqpWS010kWWXGdw-212" value="" style="fontColor=#0066CC;verticalAlign=top;verticalLabelPosition=bottom;labelPosition=center;align=center;html=1;outlineConnect=0;fillColor=#CCCCCC;strokeColor=#6881B3;gradientColor=none;gradientDirection=north;strokeWidth=2;shape=mxgraph.networks.switch;" parent="1" vertex="1">
          <mxGeometry x="430" y="475" width="100" height="30" as="geometry" />
        </mxCell>
        <mxCell id="y0iXgwqpWS010kWWXGdw-213" value="" style="endArrow=none;html=1;rounded=0;exitX=1;exitY=0.5;exitDx=0;exitDy=0;exitPerimeter=0;entryX=0;entryY=0.5;entryDx=0;entryDy=0;entryPerimeter=0;" parent="1" source="y0iXgwqpWS010kWWXGdw-6" target="y0iXgwqpWS010kWWXGdw-212" edge="1">
          <mxGeometry width="50" height="50" relative="1" as="geometry">
            <mxPoint x="570" y="480" as="sourcePoint" />
            <mxPoint x="620" y="430" as="targetPoint" />
          </mxGeometry>
        </mxCell>
        <mxCell id="y0iXgwqpWS010kWWXGdw-214" value="" style="endArrow=none;html=1;rounded=0;entryX=0.5;entryY=1;entryDx=0;entryDy=0;entryPerimeter=0;" parent="1" target="y0iXgwqpWS010kWWXGdw-29" edge="1">
          <mxGeometry width="50" height="50" relative="1" as="geometry">
            <mxPoint x="450" y="470" as="sourcePoint" />
            <mxPoint x="620" y="430" as="targetPoint" />
            <Array as="points">
              <mxPoint x="450" y="150" />
              <mxPoint x="286" y="150" />
            </Array>
          </mxGeometry>
        </mxCell>
        <mxCell id="y0iXgwqpWS010kWWXGdw-215" value="" style="endArrow=none;html=1;rounded=0;entryX=0;entryY=0.5;entryDx=0;entryDy=0;entryPerimeter=0;" parent="1" target="y0iXgwqpWS010kWWXGdw-86" edge="1">
          <mxGeometry width="50" height="50" relative="1" as="geometry">
            <mxPoint x="520" y="470" as="sourcePoint" />
            <mxPoint x="620" y="430" as="targetPoint" />
            <Array as="points">
              <mxPoint x="520" y="243" />
            </Array>
          </mxGeometry>
        </mxCell>
        <mxCell id="y0iXgwqpWS010kWWXGdw-216" value="" style="endArrow=none;html=1;rounded=0;entryX=0.5;entryY=1;entryDx=0;entryDy=0;entryPerimeter=0;" parent="1" target="y0iXgwqpWS010kWWXGdw-61" edge="1">
          <mxGeometry width="50" height="50" relative="1" as="geometry">
            <mxPoint x="500" y="470" as="sourcePoint" />
            <mxPoint x="680" y="170" as="targetPoint" />
            <Array as="points">
              <mxPoint x="500" y="150" />
              <mxPoint x="930" y="150" />
            </Array>
          </mxGeometry>
        </mxCell>
        <mxCell id="y0iXgwqpWS010kWWXGdw-217" value="" style="endArrow=none;html=1;rounded=0;entryX=0.5;entryY=1;entryDx=0;entryDy=0;entryPerimeter=0;" parent="1" target="y0iXgwqpWS010kWWXGdw-21" edge="1">
          <mxGeometry width="50" height="50" relative="1" as="geometry">
            <mxPoint x="480" y="470" as="sourcePoint" />
            <mxPoint x="680" y="170" as="targetPoint" />
            <Array as="points">
              <mxPoint x="480" y="140" />
              <mxPoint x="629" y="140" />
            </Array>
          </mxGeometry>
        </mxCell>
        <mxCell id="y0iXgwqpWS010kWWXGdw-218" value="" style="endArrow=none;html=1;rounded=0;exitX=1;exitY=0.5;exitDx=0;exitDy=0;exitPerimeter=0;" parent="1" source="y0iXgwqpWS010kWWXGdw-212" edge="1">
          <mxGeometry width="50" height="50" relative="1" as="geometry">
            <mxPoint x="630" y="430" as="sourcePoint" />
            <mxPoint x="620" y="460" as="targetPoint" />
            <Array as="points">
              <mxPoint x="620" y="490" />
            </Array>
          </mxGeometry>
        </mxCell>
        <mxCell id="y0iXgwqpWS010kWWXGdw-219" value="" style="endArrow=none;html=1;rounded=0;entryX=0.5;entryY=1;entryDx=0;entryDy=0;entryPerimeter=0;exitX=1;exitY=0.833;exitDx=0;exitDy=0;exitPerimeter=0;" parent="1" source="y0iXgwqpWS010kWWXGdw-212" target="y0iXgwqpWS010kWWXGdw-167" edge="1">
          <mxGeometry width="50" height="50" relative="1" as="geometry">
            <mxPoint x="560" y="430" as="sourcePoint" />
            <mxPoint x="610" y="380" as="targetPoint" />
            <Array as="points">
              <mxPoint x="945" y="500" />
            </Array>
          </mxGeometry>
        </mxCell>
        <mxCell id="y0iXgwqpWS010kWWXGdw-220" value="" style="endArrow=none;html=1;rounded=0;" parent="1" source="y0iXgwqpWS010kWWXGdw-212" edge="1">
          <mxGeometry width="50" height="50" relative="1" as="geometry">
            <mxPoint x="590" y="360" as="sourcePoint" />
            <mxPoint x="620" y="671" as="targetPoint" />
            <Array as="points">
              <mxPoint x="480" y="690" />
              <mxPoint x="620" y="690" />
            </Array>
          </mxGeometry>
        </mxCell>
        <mxCell id="y0iXgwqpWS010kWWXGdw-221" value="" style="endArrow=none;html=1;rounded=0;entryX=0.5;entryY=1;entryDx=0;entryDy=0;entryPerimeter=0;" parent="1" target="y0iXgwqpWS010kWWXGdw-193" edge="1">
          <mxGeometry width="50" height="50" relative="1" as="geometry">
            <mxPoint x="460" y="510" as="sourcePoint" />
            <mxPoint x="760" y="640" as="targetPoint" />
            <Array as="points">
              <mxPoint x="460" y="700" />
              <mxPoint x="945" y="700" />
            </Array>
          </mxGeometry>
        </mxCell>
        <mxCell id="y0iXgwqpWS010kWWXGdw-222" value="" style="group" parent="1" vertex="1" connectable="0">
          <mxGeometry x="150" y="200" width="270" height="120" as="geometry" />
        </mxCell>
        <mxCell id="y0iXgwqpWS010kWWXGdw-22" value="" style="rounded=1;whiteSpace=wrap;html=1;fillStyle=auto;labelBackgroundColor=#F8CECC;fillColor=#ffe6cc;strokeColor=#d79b00;" parent="y0iXgwqpWS010kWWXGdw-222" vertex="1">
          <mxGeometry width="270" height="120" as="geometry" />
        </mxCell>
        <mxCell id="y0iXgwqpWS010kWWXGdw-13" value="" style="fontColor=#0066CC;verticalAlign=top;verticalLabelPosition=bottom;labelPosition=center;align=center;html=1;outlineConnect=0;fillColor=#CCCCCC;strokeColor=#6881B3;gradientColor=none;gradientDirection=north;strokeWidth=2;shape=mxgraph.networks.desktop_pc;" parent="y0iXgwqpWS010kWWXGdw-222" vertex="1">
          <mxGeometry x="29.30726107848371" y="37.5" width="22.30951109755167" height="45" as="geometry" />
        </mxCell>
        <mxCell id="y0iXgwqpWS010kWWXGdw-14" value="" style="fontColor=#0066CC;verticalAlign=top;verticalLabelPosition=bottom;labelPosition=center;align=center;html=1;outlineConnect=0;fillColor=#CCCCCC;strokeColor=#6881B3;gradientColor=none;gradientDirection=north;strokeWidth=2;shape=mxgraph.networks.desktop_pc;" parent="y0iXgwqpWS010kWWXGdw-222" vertex="1">
          <mxGeometry x="88.79929067195484" y="37.5" width="22.30951109755167" height="45" as="geometry" />
        </mxCell>
        <mxCell id="y0iXgwqpWS010kWWXGdw-18" value="" style="fontColor=#0066CC;verticalAlign=top;verticalLabelPosition=bottom;labelPosition=center;align=center;html=1;outlineConnect=0;fillColor=#CCCCCC;strokeColor=#6881B3;gradientColor=none;gradientDirection=north;strokeWidth=2;shape=mxgraph.networks.desktop_pc;" parent="y0iXgwqpWS010kWWXGdw-222" vertex="1">
          <mxGeometry x="148.29132026542595" y="37.5" width="22.30951109755167" height="45" as="geometry" />
        </mxCell>
        <mxCell id="y0iXgwqpWS010kWWXGdw-19" value="" style="fontColor=#0066CC;verticalAlign=top;verticalLabelPosition=bottom;labelPosition=center;align=center;html=1;outlineConnect=0;fillColor=#CCCCCC;strokeColor=#6881B3;gradientColor=none;gradientDirection=north;strokeWidth=2;shape=mxgraph.networks.desktop_pc;" parent="y0iXgwqpWS010kWWXGdw-222" vertex="1">
          <mxGeometry x="218.00334985889705" y="37.5" width="22.30951109755167" height="45" as="geometry" />
        </mxCell>
        <mxCell id="y0iXgwqpWS010kWWXGdw-210" value="" style="endArrow=none;html=1;rounded=0;entryX=0.851;entryY=0.688;entryDx=0;entryDy=0;entryPerimeter=0;" parent="y0iXgwqpWS010kWWXGdw-222" source="y0iXgwqpWS010kWWXGdw-13" target="y0iXgwqpWS010kWWXGdw-22" edge="1">
          <mxGeometry width="50" height="50" relative="1" as="geometry">
            <mxPoint x="163.16432766379376" y="157.5" as="sourcePoint" />
            <mxPoint x="215.21985355808096" y="105" as="targetPoint" />
            <Array as="points">
              <mxPoint x="40.462016627259544" y="105" />
              <mxPoint x="230" y="105" />
            </Array>
          </mxGeometry>
        </mxCell>
        <mxCell id="y0iXgwqpWS010kWWXGdw-211" value="" style="endArrow=none;html=1;rounded=0;entryX=0.5;entryY=1;entryDx=0;entryDy=0;entryPerimeter=0;exitX=0.5;exitY=1;exitDx=0;exitDy=0;exitPerimeter=0;" parent="y0iXgwqpWS010kWWXGdw-222" source="y0iXgwqpWS010kWWXGdw-18" target="y0iXgwqpWS010kWWXGdw-14" edge="1">
          <mxGeometry width="50" height="50" relative="1" as="geometry">
            <mxPoint x="59.05327587521927" y="187.5" as="sourcePoint" />
            <mxPoint x="96.23579437113872" y="150" as="targetPoint" />
            <Array as="points">
              <mxPoint x="159.4460758142018" y="105" />
              <mxPoint x="99.95404622073067" y="105" />
            </Array>
          </mxGeometry>
        </mxCell>
        <mxCell id="y0iXgwqpWS010kWWXGdw-230" value="&lt;font style=&quot;font-size: 10px;&quot;&gt;File Server&lt;/font&gt;" style="text;strokeColor=none;fillColor=none;html=1;fontSize=24;fontStyle=1;verticalAlign=middle;align=center;" parent="y0iXgwqpWS010kWWXGdw-222" vertex="1">
          <mxGeometry x="9.617878117611165" y="10" width="61.693234688429555" height="20" as="geometry" />
        </mxCell>
        <mxCell id="y0iXgwqpWS010kWWXGdw-231" value="&lt;font style=&quot;font-size: 10px;&quot;&gt;Web Server&lt;/font&gt;" style="text;strokeColor=none;fillColor=none;html=1;fontSize=24;fontStyle=1;verticalAlign=middle;align=center;" parent="y0iXgwqpWS010kWWXGdw-222" vertex="1">
          <mxGeometry x="69.40736785904964" y="10" width="61.693234688429555" height="20" as="geometry" />
        </mxCell>
        <mxCell id="y0iXgwqpWS010kWWXGdw-232" value="&lt;font style=&quot;font-size: 10px;&quot;&gt;Mail Server&lt;/font&gt;" style="text;strokeColor=none;fillColor=none;html=1;fontSize=24;fontStyle=1;verticalAlign=middle;align=center;" parent="y0iXgwqpWS010kWWXGdw-222" vertex="1">
          <mxGeometry x="128.89939745252076" y="10" width="61.693234688429555" height="20" as="geometry" />
        </mxCell>
        <mxCell id="y0iXgwqpWS010kWWXGdw-233" value="&lt;font style=&quot;font-size: 10px;&quot;&gt;Database Server&lt;/font&gt;" style="text;strokeColor=none;fillColor=none;html=1;fontSize=24;fontStyle=1;verticalAlign=middle;align=center;" parent="y0iXgwqpWS010kWWXGdw-222" vertex="1">
          <mxGeometry x="198.30676531157042" y="10" width="61.693234688429555" height="20" as="geometry" />
        </mxCell>
        <mxCell id="y0iXgwqpWS010kWWXGdw-223" value="" style="endArrow=none;html=1;rounded=0;" parent="1" source="y0iXgwqpWS010kWWXGdw-7" edge="1">
          <mxGeometry width="50" height="50" relative="1" as="geometry">
            <mxPoint x="260" y="340" as="sourcePoint" />
            <mxPoint x="310" y="300" as="targetPoint" />
          </mxGeometry>
        </mxCell>
        <mxCell id="y0iXgwqpWS010kWWXGdw-224" value="Internet" style="text;strokeColor=none;fillColor=none;html=1;fontSize=24;fontStyle=1;verticalAlign=middle;align=center;" parent="1" vertex="1">
          <mxGeometry x="85.00999999999999" y="760" width="100" height="40" as="geometry" />
        </mxCell>
        <mxCell id="y0iXgwqpWS010kWWXGdw-225" value="&lt;font style=&quot;font-size: 14px;&quot;&gt;Router&lt;/font&gt;" style="text;strokeColor=none;fillColor=none;html=1;fontSize=24;fontStyle=1;verticalAlign=middle;align=center;" parent="1" vertex="1">
          <mxGeometry x="30" y="633.75" width="87.5" height="22.5" as="geometry" />
        </mxCell>
        <mxCell id="y0iXgwqpWS010kWWXGdw-226" value="&lt;span style=&quot;font-size: 14px;&quot;&gt;Firewall&lt;/span&gt;" style="text;strokeColor=none;fillColor=none;html=1;fontSize=24;fontStyle=1;verticalAlign=middle;align=center;" parent="1" vertex="1">
          <mxGeometry x="20" y="488.75" width="87.5" height="22.5" as="geometry" />
        </mxCell>
        <mxCell id="y0iXgwqpWS010kWWXGdw-227" value="&lt;span style=&quot;font-size: 14px;&quot;&gt;MVTC - DC&lt;/span&gt;" style="text;strokeColor=none;fillColor=none;html=1;fontSize=24;fontStyle=1;verticalAlign=middle;align=center;" parent="1" vertex="1">
          <mxGeometry x="251.25" y="530" width="87.5" height="22.5" as="geometry" />
        </mxCell>
        <mxCell id="y0iXgwqpWS010kWWXGdw-228" value="&lt;span style=&quot;font-size: 14px;&quot;&gt;MVTC - DC 01&lt;/span&gt;" style="text;strokeColor=none;fillColor=none;html=1;fontSize=24;fontStyle=1;verticalAlign=middle;align=center;" parent="1" vertex="1">
          <mxGeometry x="62.5" y="373.75" width="87.5" height="22.5" as="geometry" />
        </mxCell>
        <mxCell id="y0iXgwqpWS010kWWXGdw-229" value="&lt;span style=&quot;font-size: 14px;&quot;&gt;Switch&lt;/span&gt;" style="text;strokeColor=none;fillColor=none;html=1;fontSize=24;fontStyle=1;verticalAlign=middle;align=center;" parent="1" vertex="1">
          <mxGeometry x="300" y="400" width="87.5" height="22.5" as="geometry" />
        </mxCell>
        <mxCell id="y0iXgwqpWS010kWWXGdw-236" value="&lt;span style=&quot;font-size: 14px;&quot;&gt;Switch&lt;/span&gt;" style="text;strokeColor=none;fillColor=none;html=1;fontSize=24;fontStyle=1;verticalAlign=middle;align=center;" parent="1" vertex="1">
          <mxGeometry x="212.5" y="120" width="87.5" height="22.5" as="geometry" />
        </mxCell>
        <mxCell id="y0iXgwqpWS010kWWXGdw-237" value="&lt;span style=&quot;font-size: 14px;&quot;&gt;Switch&lt;/span&gt;" style="text;strokeColor=none;fillColor=none;html=1;fontSize=24;fontStyle=1;verticalAlign=middle;align=center;" parent="1" vertex="1">
          <mxGeometry x="620" y="120" width="87.5" height="22.5" as="geometry" />
        </mxCell>
        <mxCell id="y0iXgwqpWS010kWWXGdw-238" value="&lt;span style=&quot;font-size: 14px;&quot;&gt;Switch&lt;/span&gt;" style="text;strokeColor=none;fillColor=none;html=1;fontSize=24;fontStyle=1;verticalAlign=middle;align=center;" parent="1" vertex="1">
          <mxGeometry x="920" y="120" width="87.5" height="22.5" as="geometry" />
        </mxCell>
        <mxCell id="y0iXgwqpWS010kWWXGdw-240" value="&lt;span style=&quot;font-size: 14px;&quot;&gt;Switch&lt;/span&gt;" style="text;strokeColor=none;fillColor=none;html=1;fontSize=24;fontStyle=1;verticalAlign=middle;align=center;" parent="1" vertex="1">
          <mxGeometry x="380" y="510" width="87.5" height="22.5" as="geometry" />
        </mxCell>
        <mxCell id="y0iXgwqpWS010kWWXGdw-241" value="&lt;span style=&quot;font-size: 14px;&quot;&gt;Switch&lt;/span&gt;" style="text;strokeColor=none;fillColor=none;html=1;fontSize=24;fontStyle=1;verticalAlign=middle;align=center;" parent="1" vertex="1">
          <mxGeometry x="610" y="460" width="87.5" height="22.5" as="geometry" />
        </mxCell>
        <mxCell id="y0iXgwqpWS010kWWXGdw-242" value="&lt;span style=&quot;font-size: 14px;&quot;&gt;Switch&lt;/span&gt;" style="text;strokeColor=none;fillColor=none;html=1;fontSize=24;fontStyle=1;verticalAlign=middle;align=center;" parent="1" vertex="1">
          <mxGeometry x="930" y="460" width="87.5" height="22.5" as="geometry" />
        </mxCell>
        <mxCell id="y0iXgwqpWS010kWWXGdw-243" value="&lt;span style=&quot;font-size: 14px;&quot;&gt;Switch&lt;/span&gt;" style="text;strokeColor=none;fillColor=none;html=1;fontSize=24;fontStyle=1;verticalAlign=middle;align=center;" parent="1" vertex="1">
          <mxGeometry x="602.5" y="670" width="87.5" height="22.5" as="geometry" />
        </mxCell>
        <mxCell id="y0iXgwqpWS010kWWXGdw-244" value="&lt;span style=&quot;font-size: 14px;&quot;&gt;Switch&lt;/span&gt;" style="text;strokeColor=none;fillColor=none;html=1;fontSize=24;fontStyle=1;verticalAlign=middle;align=center;" parent="1" vertex="1">
          <mxGeometry x="930" y="667.5" width="87.5" height="22.5" as="geometry" />
        </mxCell>
        <mxCell id="y0iXgwqpWS010kWWXGdw-247" value="&lt;font style=&quot;font-size: 9px;&quot;&gt;Lễ Tân&lt;/font&gt;" style="text;strokeColor=none;fillColor=none;html=1;fontSize=24;fontStyle=1;verticalAlign=middle;align=center;" parent="1" vertex="1">
          <mxGeometry x="588.75" width="130" height="20" as="geometry" />
        </mxCell>
        <mxCell id="y0iXgwqpWS010kWWXGdw-248" value="&lt;font style=&quot;font-size: 9px;&quot;&gt;Phòng Họp&lt;/font&gt;" style="text;strokeColor=none;fillColor=none;html=1;fontSize=24;fontStyle=1;verticalAlign=middle;align=center;" parent="1" vertex="1">
          <mxGeometry x="850" width="130" height="20" as="geometry" />
        </mxCell>
      </root>
    </mxGraphModel>
  </diagram>
</mxfile>
